# Blender v2.65 (sub 0) OBJ File: 'letters.blend'
# www.blender.org
mtllib LetterW.mtl
o LetterW
v 0.230002 0.000000 0.000000
v 0.150000 0.000000 -1.000000
v 0.500000 0.000000 -0.360316
v 1.000000 0.000000 -1.000001
v 0.810720 0.000000 -0.176000
v 0.660740 0.000000 -0.175638
v 0.339002 0.000000 -0.176000
v 0.189097 0.000000 -0.176023
v 0.500000 0.000000 -0.640000
v 0.620002 0.000000 0.000000
v 0.770423 0.000000 0.000000
v 0.850000 0.000000 -1.000001
v 0.000000 0.000000 -0.999999
v 0.379930 0.000000 -0.000100
v 0.380002 0.150000 0.000000
v 0.000000 0.150000 -0.999999
v 0.850000 0.150000 -1.000001
v 0.770423 0.150000 0.000000
v 0.620002 0.150000 0.000000
v 0.500000 0.150000 -0.640000
v 0.189000 0.150000 -0.176000
v 0.339002 0.150000 -0.176000
v 0.660721 0.150000 -0.176000
v 0.810720 0.149900 -0.176000
v 1.000000 0.150000 -1.000001
v 0.500000 0.150000 -0.360000
v 0.150000 0.150000 -1.000000
v 0.230002 0.150000 0.000000
v 0.999874 0.000000 -0.999901
v 0.810622 0.000000 -0.176022
v 0.338982 0.000000 -0.175639
v 0.500000 0.000000 -0.639695
v 0.189000 0.000000 -0.176000
v 0.000126 0.000000 -0.999899
v 0.620074 0.000000 -0.000100
v 0.770343 0.000000 -0.000100
v 0.230081 0.000000 -0.000100
v 0.380002 0.000000 0.000000
v 0.149920 0.000000 -0.999900
v 0.850080 0.000000 -0.999901
v 0.660721 0.000000 -0.176000
v 0.500000 0.000000 -0.360000
v 0.620074 0.150000 -0.000100
v 0.500000 0.150000 -0.360316
v 0.500000 0.150000 -0.639695
v 0.660740 0.150000 -0.175638
v 0.379930 0.150000 -0.000100
v 0.338982 0.150000 -0.175639
v 0.149920 0.150000 -0.999900
v 0.189097 0.150000 -0.176023
v 0.230081 0.150000 -0.000100
v 0.850080 0.150000 -0.999901
v 0.770343 0.150000 -0.000100
v 0.810622 0.150000 -0.176022
v 0.999874 0.150000 -0.999901
v 0.000126 0.150000 -0.999899
v 0.999978 0.000100 -0.999904
v 0.810720 0.000100 -0.176000
v 0.339002 0.000100 -0.176000
v 0.499967 0.000100 -0.639906
v 0.189000 0.000100 -0.176000
v 0.000022 0.000100 -0.999902
v 0.770445 0.000100 -0.000097
v 0.660743 0.000100 -0.176097
v 0.849978 0.000100 -0.999904
v 0.229979 0.000100 -0.000097
v 0.150022 0.000100 -0.999902
v 0.499968 0.000100 -0.359905
v 0.380034 0.000100 -0.000095
v 0.499968 0.149900 -0.359905
v 0.499967 0.149900 -0.639906
v 0.660743 0.149900 -0.176097
v 0.380034 0.149900 -0.000095
v 0.150022 0.149900 -0.999902
v 0.339002 0.149900 -0.176000
v 0.229979 0.149900 -0.000097
v 0.189000 0.149900 -0.176000
v 0.849978 0.149900 -0.999904
v 0.770445 0.149900 -0.000097
v 0.810720 0.150000 -0.176000
v 0.999978 0.149900 -0.999904
v 0.000022 0.149900 -0.999902
v 0.660688 0.000100 -0.176094
v 0.500033 0.000100 -0.639906
v 0.500033 0.149900 -0.639906
v 0.660688 0.149900 -0.176094
v 0.338979 0.000200 -0.176098
v 0.338979 0.149800 -0.176098
v 0.150045 0.000200 -0.999805
v 0.150045 0.149800 -0.999805
v 0.620102 0.000100 0.000000
v 0.770323 0.000100 0.000000
v 0.230102 0.000100 0.000000
v 0.379902 0.000100 0.000000
v 0.149900 0.000100 -1.000000
v 0.000100 0.000100 -0.999999
v 0.999900 0.000100 -1.000001
v 0.850100 0.000100 -1.000001
v 0.620102 0.149900 0.000000
v 0.379902 0.149900 0.000000
v 0.149900 0.149900 -1.000000
v 0.230102 0.149900 0.000000
v 0.850100 0.149900 -1.000001
v 0.770323 0.149900 0.000000
v 0.999900 0.149900 -1.000001
v 0.000100 0.149900 -0.999999
vt 0.015930 0.982746
vt 0.200358 0.187139
vt 0.344679 0.186768
vt 0.164243 0.982746
vt 0.199766 0.187139
vt 0.017279 0.982744
vt 0.161934 0.982744
vt 0.344508 0.186769
vt 0.384050 0.017254
vt 0.500000 0.634900
vt 0.500000 0.365109
vt 0.381580 0.017254
vt 0.239344 0.017254
vt 0.241538 0.017254
vt 0.982778 0.119926
vt 0.982778 0.307053
vt 0.908809 0.307053
vt 0.908810 0.119926
vt 0.914161 0.966228
vt 0.914161 0.724181
vt 0.988031 0.724181
vt 0.988031 0.966228
vt 0.908098 0.956463
vt 0.908098 0.769435
vt 0.981968 0.769435
vt 0.981968 0.956463
vt 0.911559 0.981037
vt 0.911559 0.564300
vt 0.985330 0.564300
vt 0.985330 0.981037
vt 0.979446 0.442757
vt 0.979446 0.531821
vt 0.905576 0.531821
vt 0.905576 0.442757
vt 0.979366 0.554454
vt 0.979366 0.971271
vt 0.905496 0.971271
vt 0.905496 0.554454
vt 0.911639 0.541587
vt 0.911639 0.452601
vt 0.985509 0.452601
vt 0.985509 0.541587
vt 0.911801 0.739179
vt 0.911801 0.665309
vt 0.985671 0.665309
vt 0.985671 0.739179
vt 0.914971 0.400879
vt 0.914971 0.327009
vt 0.988841 0.327009
vt 0.988841 0.400879
vt 0.911801 0.664757
vt 0.911801 0.590887
vt 0.985671 0.590887
vt 0.985671 0.664757
vt 0.914971 0.475509
vt 0.914971 0.401432
vt 0.988841 0.401432
vt 0.988841 0.475509
vt 0.979446 0.025921
vt 0.905576 0.025921
vt 0.976616 0.055145
vt 0.976616 0.297288
vt 0.902746 0.297288
vt 0.902746 0.055145
vt 0.911640 0.035733
vt 0.985509 0.035733
vt 0.854596 0.976971
vt 0.854596 0.965561
vt 0.856426 0.963377
vt 0.856086 0.976970
vt 0.867248 0.952901
vt 0.866670 0.966854
vt 0.866000 0.962383
vt 0.866000 0.952810
vt 0.862843 0.879461
vt 0.862843 0.892010
vt 0.861205 0.891903
vt 0.861488 0.877209
vt 0.861345 0.949774
vt 0.861345 0.944752
vt 0.862077 0.944185
vt 0.862001 0.949734
vt 0.865453 0.856310
vt 0.865451 0.861598
vt 0.864761 0.861550
vt 0.864704 0.856713
vt 0.872186 0.867288
vt 0.872186 0.872116
vt 0.871420 0.873032
vt 0.871556 0.867327
vt 0.864086 0.856359
vt 0.864152 0.861143
vt 0.863396 0.861598
vt 0.863396 0.856309
vt 0.848517 0.960199
vt 0.848517 0.954400
vt 0.849274 0.954449
vt 0.849274 0.960251
vt 0.872186 0.873697
vt 0.871428 0.892010
vt 0.870548 0.886142
vt 0.870548 0.873585
vt 0.861205 0.876657
vt 0.861288 0.870576
vt 0.862007 0.870529
vt 0.862007 0.876038
vt 0.847304 0.976971
vt 0.847304 0.961881
vt 0.848432 0.960803
vt 0.849274 0.970114
vt 0.852211 0.961447
vt 0.852211 0.953029
vt 0.853309 0.953113
vt 0.853196 0.962374
vt 0.852901 0.878797
vt 0.852355 0.871548
vt 0.853843 0.867254
vt 0.853843 0.878663
vt 0.869995 0.868572
vt 0.869996 0.876602
vt 0.868841 0.877413
vt 0.868947 0.868641
vt 0.861345 0.962076
vt 0.861642 0.950326
vt 0.862342 0.953726
vt 0.862342 0.962991
vt 0.851653 0.878041
vt 0.851582 0.892010
vt 0.850750 0.887562
vt 0.850750 0.874340
vt 0.864678 0.867341
vt 0.864678 0.877178
vt 0.863849 0.877866
vt 0.863396 0.871188
vt 0.853843 0.879460
vt 0.853843 0.892010
vt 0.852205 0.891903
vt 0.852205 0.879349
vt 0.856502 0.961562
vt 0.856508 0.955713
vt 0.857259 0.955810
vt 0.857259 0.961614
vt 0.854395 0.892010
vt 0.854395 0.880094
vt 0.856131 0.878750
vt 0.855951 0.891908
vt 0.858617 0.955511
vt 0.858617 0.960992
vt 0.857811 0.961614
vt 0.857901 0.955511
vt 0.850750 0.873788
vt 0.850750 0.868960
vt 0.851516 0.868044
vt 0.851380 0.873749
vt 0.868358 0.861549
vt 0.868293 0.856764
vt 0.869048 0.856309
vt 0.869048 0.861598
vt 0.849274 0.942063
vt 0.849274 0.947079
vt 0.848543 0.947643
vt 0.848619 0.942103
vt 0.867682 0.856351
vt 0.867741 0.861195
vt 0.866991 0.861598
vt 0.866991 0.856303
vt 0.863396 0.892008
vt 0.863396 0.880601
vt 0.865225 0.878418
vt 0.864884 0.892010
vt 0.848258 0.878798
vt 0.847711 0.871547
vt 0.849200 0.867254
vt 0.849200 0.878665
vt 0.858617 0.964420
vt 0.858617 0.976971
vt 0.856978 0.976863
vt 0.857261 0.962166
vt 0.860653 0.879460
vt 0.860653 0.892010
vt 0.859015 0.891903
vt 0.859243 0.877623
vt 0.854395 0.878198
vt 0.854395 0.869266
vt 0.855745 0.867964
vt 0.855561 0.878122
vt 0.861345 0.976971
vt 0.861345 0.965252
vt 0.863116 0.963543
vt 0.862875 0.976870
vt 0.860793 0.955721
vt 0.860793 0.961137
vt 0.859975 0.961926
vt 0.860086 0.955768
vt 0.868532 0.890643
vt 0.868163 0.879798
vt 0.869996 0.877966
vt 0.869996 0.892010
vt 0.850905 0.956573
vt 0.851659 0.962328
vt 0.850901 0.962373
vt 0.850148 0.956573
vt 0.849200 0.879462
vt 0.849200 0.892010
vt 0.847562 0.891903
vt 0.847562 0.879350
vt 0.867363 0.868921
vt 0.867610 0.876186
vt 0.866382 0.877414
vt 0.866382 0.868005
vt 0.860249 0.950268
vt 0.855316 0.950268
vt 0.854597 0.949522
vt 0.860210 0.949623
vt 0.857114 0.865257
vt 0.862047 0.865257
vt 0.862767 0.866002
vt 0.857153 0.865901
vt 0.862766 0.863407
vt 0.857833 0.863407
vt 0.857114 0.862661
vt 0.862727 0.862762
vt 0.854844 0.961909
vt 0.854596 0.954643
vt 0.855824 0.953416
vt 0.855824 0.962825
vt 0.863396 0.863448
vt 0.868329 0.863448
vt 0.869048 0.864194
vt 0.863435 0.864093
vt 0.862767 0.867300
vt 0.857832 0.867300
vt 0.857113 0.866554
vt 0.862728 0.866655
vt 0.856684 0.892010
vt 0.856684 0.880347
vt 0.858463 0.878634
vt 0.858206 0.892010
vt 0.862991 0.948743
vt 0.868604 0.948844
vt 0.868643 0.949488
vt 0.863710 0.949488
vt 0.847159 0.872590
vt 0.847159 0.878009
vt 0.846341 0.878798
vt 0.846452 0.872636
vt 0.851290 0.964293
vt 0.851659 0.975138
vt 0.849826 0.976971
vt 0.849826 0.962926
vt 0.854598 0.946927
vt 0.859530 0.946927
vt 0.860249 0.947673
vt 0.854637 0.947572
vt 0.859896 0.877071
vt 0.859142 0.871273
vt 0.859899 0.871273
vt 0.860653 0.877025
vt 0.862991 0.950040
vt 0.867924 0.950040
vt 0.868643 0.950786
vt 0.863029 0.950685
vt 0.853363 0.862809
vt 0.848431 0.862809
vt 0.847712 0.862063
vt 0.853324 0.862164
vt 0.854596 0.952118
vt 0.859531 0.952118
vt 0.860250 0.952863
vt 0.854635 0.952762
vt 0.860793 0.964315
vt 0.860793 0.976971
vt 0.859169 0.976759
vt 0.859381 0.962479
vt 0.845764 0.882446
vt 0.847010 0.892010
vt 0.845761 0.892010
vt 0.844516 0.882524
vt 0.863668 0.976971
vt 0.863668 0.965306
vt 0.865448 0.963595
vt 0.865191 0.976971
vt 0.858463 0.867852
vt 0.858463 0.876781
vt 0.857113 0.878082
vt 0.857297 0.867925
vt 0.860249 0.948970
vt 0.855316 0.948970
vt 0.854597 0.948225
vt 0.860210 0.948326
vt 0.864098 0.963043
vt 0.864098 0.954114
vt 0.865448 0.952812
vt 0.865264 0.962969
vt 0.847712 0.863361
vt 0.852645 0.863361
vt 0.853364 0.864106
vt 0.847750 0.864005
vt 0.862991 0.946148
vt 0.867921 0.946148
vt 0.868639 0.946893
vt 0.863030 0.946792
vt 0.867241 0.879334
vt 0.867610 0.890177
vt 0.865777 0.892010
vt 0.865777 0.877966
vt 0.862766 0.862109
vt 0.857836 0.862109
vt 0.857117 0.861364
vt 0.862728 0.861465
vt 0.852581 0.975604
vt 0.852211 0.964760
vt 0.854044 0.962927
vt 0.854044 0.976971
vt 0.851659 0.950361
vt 0.851659 0.955301
vt 0.850913 0.956021
vt 0.851014 0.950399
vt 0.871420 0.866736
vt 0.871521 0.861123
vt 0.872165 0.861084
vt 0.872165 0.866017
vt 0.869601 0.866789
vt 0.869601 0.861856
vt 0.870346 0.861137
vt 0.870245 0.866751
vt 0.854999 0.867412
vt 0.854999 0.862479
vt 0.855745 0.861760
vt 0.855644 0.867373
vt 0.862991 0.947445
vt 0.867924 0.947445
vt 0.868643 0.948190
vt 0.863030 0.948089
vt 0.869048 0.862896
vt 0.864115 0.862896
vt 0.863396 0.862151
vt 0.869009 0.862252
vt 0.863396 0.864746
vt 0.868329 0.864746
vt 0.869048 0.865491
vt 0.863435 0.865390
vt 0.853364 0.865404
vt 0.847750 0.865303
vt 0.847712 0.864658
vt 0.852645 0.864658
vt 0.853364 0.866701
vt 0.848430 0.866701
vt 0.847711 0.865956
vt 0.853325 0.866057
vt 0.860249 0.951566
vt 0.855315 0.951566
vt 0.854596 0.950820
vt 0.860210 0.950921
vt 0.849274 0.948195
vt 0.849274 0.953128
vt 0.848529 0.953847
vt 0.848629 0.948234
vt 0.863396 0.866044
vt 0.868329 0.866044
vt 0.869048 0.866789
vt 0.863434 0.866688
vt 0.862766 0.864704
vt 0.857833 0.864704
vt 0.857114 0.863959
vt 0.862727 0.864060
vt 0.853309 0.946825
vt 0.853309 0.951758
vt 0.852563 0.952477
vt 0.852664 0.946863
vt 0.850914 0.949808
vt 0.850914 0.944875
vt 0.851659 0.944156
vt 0.851558 0.949770
vt 0.846412 0.872038
vt 0.846412 0.867098
vt 0.847159 0.866378
vt 0.847058 0.871999
vn 0.000000 -1.000000 0.000000
vn 0.000000 -0.984832 0.173467
vn -0.469405 -0.596179 0.651295
vn -0.469405 0.596179 0.651295
vn 0.000000 0.984832 0.173467
vn 0.944914 0.000000 -0.327280
vn 0.948668 0.000000 0.316202
vn 0.974670 0.000031 -0.223548
vn 0.974700 0.000031 -0.223487
vn 0.974700 -0.000031 -0.223487
vn 0.974670 -0.000031 -0.223548
vn -0.974303 0.000000 0.225227
vn -0.973907 0.000000 0.226905
vn -0.974639 0.000000 -0.223731
vn 0.974731 -0.000031 0.223273
vn 0.974670 -0.000031 0.223518
vn 0.974670 0.000031 0.223518
vn 0.974731 0.000031 0.223273
vn 0.000000 0.000000 -1.000000
vn 0.000000 0.000000 1.000000
vn -0.974670 -0.000031 0.223518
vn -0.974670 0.000031 0.223518
vn -0.944731 0.000000 -0.327799
vn 0.054231 0.000092 -0.998505
vn 0.054231 -0.000092 -0.998505
vn 0.974609 -0.000031 0.223792
vn 0.974609 0.000031 0.223792
vn 0.000000 1.000000 0.000000
vn 0.644642 -0.566363 -0.513413
vn 0.689077 -0.707205 0.158025
vn 0.008118 -0.988708 -0.149602
vn 0.000214 -0.544145 -0.838984
vn -0.689291 -0.706717 0.159337
vn -0.644581 -0.566393 -0.513474
vn 0.503067 -0.590106 0.631367
vn 0.469436 -0.596179 0.651295
vn -0.501816 -0.590350 0.632160
vn 0.503006 -0.590136 -0.631397
vn -0.502914 -0.590167 -0.631428
vn -0.008057 -0.988708 -0.149480
vn -0.008057 0.988708 -0.149480
vn 0.000214 0.544145 -0.838984
vn 0.469436 0.596179 0.651295
vn 0.008118 0.988708 -0.149602
vn 0.503006 0.590136 -0.631397
vn -0.689291 0.706717 0.159337
vn -0.501816 0.590350 0.632160
vn -0.502914 0.590167 -0.631428
vn 0.503067 0.590106 0.631367
vn 0.689077 0.707205 0.158025
vn 0.644642 0.566363 -0.513413
vn -0.644581 0.566393 -0.513474
usemtl ABCmat
s 1
f 29/1/1 30/2/1 6/3/1 40/4/1
f 8/5/1 34/6/1 39/7/1 31/8/1
f 14/9/1 31/8/1 32/10/1 3/11/1
f 3/11/1 32/10/1 6/3/1 35/12/1
f 37/13/1 8/5/1 31/8/1 14/9/1
f 30/2/1 36/14/1 35/12/1 6/3/1
f 42/15/2 10/16/3 19/17/4 26/18/5
f 83/19/6 84/20/6 85/21/6 86/22/6
f 69/23/7 68/24/7 70/25/7 73/26/7
f 87/27/8 89/28/9 90/29/10 88/30/11
f 61/31/12 66/32/13 76/33/13 77/34/12
f 65/35/14 64/36/14 72/37/14 78/38/14
f 63/39/15 58/40/16 24/41/17 79/42/18
f 97/43/19 98/44/19 103/45/19 105/46/19
f 95/47/19 96/48/19 106/49/19 101/50/19
f 93/51/20 94/52/20 100/53/20 102/54/20
f 91/55/20 92/56/20 104/57/20 99/58/20
f 62/59/21 61/31/12 77/34/12 82/60/22
f 60/61/23 59/62/24 75/63/25 71/64/23
f 58/40/16 57/65/26 81/66/27 24/41/17
f 46/3/28 54/2/28 55/1/28 52/4/28
f 49/7/28 56/6/28 50/5/28 48/8/28
f 45/10/28 48/8/28 47/9/28 44/11/28
f 46/3/28 45/10/28 44/11/28 43/12/28
f 48/8/28 50/5/28 51/13/28 47/9/28
f 43/12/28 53/14/28 54/2/28 46/3/28
f 30/67/1 29/68/1 4/69/29 5/70/30
f 32/71/1 31/72/1 7/73/31 9/74/32
f 34/75/1 8/76/1 33/77/33 13/78/34
f 35/79/1 36/80/1 11/81/35 10/82/3
f 38/83/36 1/84/37 37/85/1 14/86/1
f 39/87/1 34/88/1 13/89/34 2/90/38
f 29/91/1 40/92/1 12/93/39 4/94/29
f 36/95/1 30/96/1 5/97/30 11/98/35
f 40/99/1 6/100/1 41/101/40 12/102/39
f 1/103/37 33/104/33 8/105/1 37/106/1
f 31/107/1 39/108/1 2/109/38 7/110/31
f 14/111/1 3/112/1 42/113/2 38/114/36
f 6/115/1 32/116/1 9/117/32 41/118/40
f 3/119/1 35/120/1 10/121/3 42/122/2
f 43/123/28 44/124/28 26/125/5 19/126/4
f 45/127/28 46/128/28 23/129/41 20/130/42
f 44/131/28 47/132/28 15/133/43 26/134/5
f 49/135/28 48/136/28 22/137/44 27/138/45
f 51/139/28 50/140/28 21/141/46 28/142/47
f 46/143/28 52/144/28 17/145/48 23/146/41
f 54/147/28 53/148/28 18/149/49 80/150/50
f 52/151/28 55/152/28 25/153/51 17/154/48
f 56/155/28 49/156/28 27/157/45 16/158/52
f 47/159/28 51/160/28 28/161/47 15/162/43
f 53/163/28 43/164/28 19/165/4 18/166/49
f 50/167/28 56/168/28 16/169/52 21/170/46
f 48/171/28 45/172/28 20/173/42 22/174/44
f 55/175/28 54/176/28 80/177/50 25/178/51
f 57/179/26 58/180/16 5/181/30 4/182/29
f 59/183/24 60/184/23 9/185/32 7/186/31
f 61/187/12 62/188/21 13/189/34 33/190/33
f 58/191/16 63/192/15 11/193/35 5/194/30
f 64/195/14 65/196/14 12/197/39 41/198/40
f 33/199/33 1/200/37 66/201/13 61/202/12
f 67/203/9 59/204/24 7/205/31 2/206/38
f 68/207/7 69/208/7 38/209/36 42/210/2
f 70/211/7 68/212/7 42/213/2 26/214/5
f 60/215/23 71/216/23 20/217/42 9/218/32
f 72/219/14 64/220/14 41/221/40 23/222/41
f 73/223/7 70/224/7 26/225/5 15/226/43
f 69/227/7 73/228/7 15/229/43 38/230/36
f 74/231/10 67/232/9 2/233/38 27/234/45
f 75/235/25 74/236/10 27/237/45 22/238/44
f 1/239/37 28/240/47 76/241/13 66/242/13
f 77/243/12 76/244/13 28/245/47 21/246/46
f 78/247/14 72/248/14 23/249/41 17/250/48
f 65/251/14 78/252/14 17/253/48 12/254/39
f 79/255/18 24/256/17 80/257/50 18/258/49
f 63/259/15 79/260/18 18/261/49 11/262/35
f 81/263/27 57/264/26 4/265/29 25/266/51
f 62/267/21 82/268/22 16/269/52 13/270/34
f 82/271/22 77/272/12 21/273/46 16/274/52
f 71/275/23 75/276/25 22/277/44 20/278/42
f 24/279/17 81/280/27 25/281/51 80/282/50
f 84/283/6 83/284/6 41/285/40 9/286/32
f 85/287/6 84/288/6 9/289/32 20/290/42
f 86/291/6 85/292/6 20/293/42 23/294/41
f 83/295/6 86/296/6 23/297/41 41/298/40
f 87/299/8 88/300/11 75/301/25 59/302/24
f 89/303/9 87/304/8 59/305/24 67/306/9
f 90/307/10 89/308/9 67/309/9 74/310/10
f 88/311/11 90/312/10 74/313/10 75/314/25
f 92/315/20 91/316/20 10/317/3 11/318/35
f 1/319/37 38/320/36 94/321/20 93/322/20
f 96/323/19 95/324/19 2/325/38 13/326/34
f 98/327/19 97/328/19 4/329/29 12/330/39
f 91/331/20 99/332/20 19/333/4 10/334/3
f 100/335/20 94/336/20 38/337/36 15/338/43
f 95/339/19 101/340/19 27/341/45 2/342/38
f 28/343/47 1/344/37 93/345/20 102/346/20
f 103/347/19 98/348/19 12/349/39 17/350/48
f 104/351/20 92/352/20 11/353/35 18/354/49
f 105/355/19 103/356/19 17/357/48 25/358/51
f 97/359/19 105/360/19 25/361/51 4/362/29
f 106/363/19 96/364/19 13/365/34 16/366/52
f 101/367/19 106/368/19 16/369/52 27/370/45
f 102/371/20 100/372/20 15/373/43 28/374/47
f 99/375/20 104/376/20 18/377/49 19/378/4
