# Blender v2.65 (sub 0) OBJ File: 'letters.blend'
# www.blender.org
mtllib LetterH.mtl
o LetterH
v 0.149999 0.150000 -1.000000
v -0.000001 0.150000 -1.000000
v 0.150000 0.150000 -0.000000
v -0.000000 0.150000 0.000000
v 0.149900 0.150000 -0.574900
v 0.000100 0.150000 -0.575000
v 0.149900 0.150000 -0.425100
v 0.000100 0.150000 -0.425000
v 0.500175 0.150000 -0.425100
v 0.649975 0.150000 -0.425000
v 0.500174 0.150000 -0.574900
v 0.649975 0.150000 -0.575000
v 0.500075 0.150000 0.000000
v 0.650075 0.150000 -0.000000
v 0.500074 0.150000 -1.000000
v 0.650074 0.150000 -1.000000
v 0.650074 0.000000 -1.000000
v 0.500074 0.000000 -1.000000
v 0.650075 0.000000 -0.000000
v 0.500075 0.000000 0.000000
v 0.650075 0.000100 -0.575000
v 0.500075 0.000000 -0.575000
v 0.650075 0.000100 -0.425000
v 0.500075 0.000000 -0.425000
v -0.000000 0.000100 -0.425000
v 0.150000 0.000000 -0.425000
v -0.000000 0.000100 -0.575000
v 0.150000 0.000000 -0.575000
v -0.000000 0.000000 0.000000
v 0.150000 0.000000 -0.000000
v -0.000001 0.000000 -1.000000
v 0.149999 0.000000 -1.000000
v 0.149899 0.150000 -0.999900
v 0.000099 0.150000 -0.999900
v 0.149900 0.150000 -0.000100
v 0.000100 0.150000 -0.000100
v 0.150000 0.150000 -0.575000
v -0.000000 0.150000 -0.575000
v 0.150000 0.150000 -0.425000
v -0.000000 0.150000 -0.425000
v 0.500075 0.150000 -0.425000
v 0.500175 0.150000 -0.000100
v 0.650075 0.150000 -0.425000
v 0.649975 0.150000 -0.000100
v 0.650075 0.150000 -0.575000
v 0.500075 0.150000 -0.575000
v 0.500174 0.150000 -0.999900
v 0.649974 0.150000 -0.999900
v 0.500174 0.000000 -0.574900
v 0.149900 0.000000 -0.574900
v 0.500175 0.000000 -0.425100
v 0.149900 0.000000 -0.425100
v 0.649974 0.000000 -0.999900
v 0.500174 0.000000 -0.999900
v 0.649975 0.000000 -0.000100
v 0.500175 0.000000 -0.000100
v 0.649975 0.000000 -0.575000
v 0.649975 0.000000 -0.425000
v 0.000100 0.000000 -0.425000
v 0.000100 0.000000 -0.000100
v 0.000100 0.000000 -0.575000
v 0.149900 0.000000 -0.000100
v 0.000099 0.000000 -0.999900
v 0.149899 0.000000 -0.999900
v 0.149999 0.149900 -0.999900
v 0.149999 0.000100 -0.999900
v 0.150000 0.149900 -0.575100
v -0.000001 0.149900 -0.999900
v -0.000000 0.149900 -0.575000
v -0.000001 0.000100 -0.999900
v 0.150000 0.149900 -0.000100
v 0.150000 0.149900 -0.424900
v 0.150000 0.000100 -0.000100
v -0.000000 0.149900 -0.425000
v -0.000000 0.149900 -0.000100
v -0.000000 0.000100 -0.000100
v 0.500075 0.149900 -0.424900
v 0.500075 0.149900 -0.000100
v 0.650075 0.149900 -0.425000
v 0.650075 0.149900 -0.000100
v 0.650075 0.149900 -0.575000
v 0.500075 0.149900 -0.575100
v 0.500074 0.149900 -0.999900
v 0.650074 0.149900 -0.999900
v 0.650075 0.000100 -0.000100
v 0.500075 0.000100 -0.000100
v 0.500074 0.000100 -0.999900
v 0.650074 0.000100 -0.999900
v 0.500075 0.000100 -0.424900
v 0.150000 0.000100 -0.424900
v 0.150000 0.000100 -0.575100
v 0.500075 0.000100 -0.575100
v 0.650075 0.000000 -0.575000
v 0.650075 0.000000 -0.425000
v -0.000000 0.000000 -0.425000
v -0.000000 0.000000 -0.575000
v 0.149899 0.149900 -1.000000
v 0.000099 0.149900 -1.000000
v 0.149900 0.149900 -0.000000
v 0.000100 0.149900 -0.000000
v 0.149899 0.000100 -1.000000
v 0.000099 0.000100 -1.000000
v 0.149900 0.000100 -0.000000
v 0.000100 0.000100 -0.000000
v 0.649975 0.149900 -0.000000
v 0.649975 0.000100 -0.000000
v 0.500175 0.149900 0.000000
v 0.500175 0.000100 0.000000
v 0.500174 0.149900 -1.000000
v 0.500174 0.000100 -1.000000
v 0.649974 0.149900 -1.000000
v 0.649974 0.000100 -1.000000
v 0.499975 0.149900 -0.425000
v 0.499975 0.000100 -0.425000
v 0.150100 0.149900 -0.425000
v 0.150100 0.000100 -0.425000
v 0.150100 0.149900 -0.575000
v 0.150100 0.000100 -0.575000
v 0.499975 0.149900 -0.575000
v 0.499975 0.000100 -0.575000
vt 0.495738 0.430133
vt 0.495738 0.574750
vt 0.157584 0.574750
vt 0.157584 0.430133
vt 0.495738 0.985043
vt 0.640355 0.574846
vt 0.640354 0.985043
vt 0.495739 0.019840
vt 0.640355 0.019840
vt 0.640355 0.430037
vt 0.012968 0.574846
vt 0.012968 0.430037
vt 0.012968 0.019840
vt 0.157584 0.019840
vt 0.157584 0.985043
vt 0.012967 0.985043
vt 0.886906 0.664156
vt 0.980337 0.664156
vt 0.980337 0.757587
vt 0.886906 0.757587
vt 0.891578 0.316502
vt 0.985010 0.316502
vt 0.985010 0.409933
vt 0.891578 0.409933
vt 0.892265 0.051501
vt 0.985696 0.051534
vt 0.985605 0.316485
vt 0.892173 0.316453
vt 0.981701 0.630943
vt 0.888270 0.630943
vt 0.888270 0.365929
vt 0.981701 0.365929
vt 0.890908 0.053487
vt 0.984339 0.053487
vt 0.984339 0.318438
vt 0.890908 0.318438
vt 0.981701 0.724500
vt 0.888270 0.724500
vt 0.981701 0.989514
vt 0.888270 0.989514
vt 0.984041 0.310626
vt 0.890610 0.310626
vt 0.890610 0.045674
vt 0.984041 0.045674
vt 0.891878 0.720594
vt 0.985310 0.720593
vt 0.985310 0.985608
vt 0.891878 0.985608
vt 0.891878 0.627037
vt 0.985309 0.627037
vt 0.982684 0.312579
vt 0.889253 0.312579
vt 0.889252 0.047628
vt 0.982684 0.047628
vt 0.891877 0.362023
vt 0.985309 0.362023
vt 0.891578 0.410549
vt 0.985010 0.410549
vt 0.985010 0.503981
vt 0.891578 0.503981
vt 0.980337 0.851635
vt 0.886905 0.851635
vt 0.886906 0.758203
vt 0.980337 0.758203
vt 0.888561 0.067012
vt 0.981992 0.067012
vt 0.981992 0.285232
vt 0.888561 0.285232
vt 0.985307 0.285232
vt 0.891876 0.285232
vt 0.891876 0.067012
vt 0.985307 0.067012
vt 0.858592 0.923897
vt 0.858464 0.930997
vt 0.857649 0.931047
vt 0.857649 0.924806
vt 0.847620 0.905888
vt 0.847620 0.912127
vt 0.846677 0.913037
vt 0.846805 0.905937
vt 0.862274 0.968756
vt 0.862274 0.955948
vt 0.863565 0.957576
vt 0.863565 0.970384
vt 0.859908 0.955334
vt 0.859908 0.944824
vt 0.861496 0.943293
vt 0.861279 0.955244
vt 0.863621 0.930933
vt 0.863621 0.942188
vt 0.862152 0.943657
vt 0.862152 0.932402
vt 0.874304 0.917665
vt 0.874304 0.910979
vt 0.875177 0.910922
vt 0.875177 0.917608
vt 0.857649 0.955526
vt 0.857649 0.944272
vt 0.859118 0.944369
vt 0.858913 0.957174
vt 0.859908 0.968756
vt 0.859908 0.955949
vt 0.861198 0.957577
vt 0.861198 0.970384
vt 0.873842 0.932999
vt 0.873842 0.943460
vt 0.872247 0.944995
vt 0.872477 0.932999
vt 0.852571 0.950429
vt 0.852571 0.957116
vt 0.851698 0.957174
vt 0.851698 0.950487
vt 0.868699 0.944997
vt 0.868699 0.934488
vt 0.870287 0.932956
vt 0.870071 0.944908
vt 0.851051 0.959130
vt 0.852515 0.970384
vt 0.851046 0.970384
vt 0.849582 0.959221
vt 0.857441 0.902745
vt 0.857441 0.908984
vt 0.856499 0.909894
vt 0.856626 0.902794
vt 0.872746 0.920841
vt 0.872746 0.914602
vt 0.873689 0.913692
vt 0.873561 0.920793
vt 0.873689 0.921457
vt 0.873492 0.932305
vt 0.872247 0.932384
vt 0.872247 0.922847
vt 0.855700 0.931905
vt 0.855700 0.921690
vt 0.857033 0.921605
vt 0.857033 0.931818
vt 0.854520 0.921605
vt 0.854520 0.931821
vt 0.853186 0.931905
vt 0.853186 0.921693
vt 0.862274 0.955333
vt 0.862471 0.944485
vt 0.863716 0.944406
vt 0.863716 0.953942
vt 0.872130 0.913692
vt 0.872130 0.919932
vt 0.871187 0.920841
vt 0.871315 0.913741
vt 0.858057 0.911479
vt 0.858057 0.905240
vt 0.859000 0.904330
vt 0.858872 0.911431
vt 0.855445 0.957174
vt 0.855445 0.946663
vt 0.857033 0.945131
vt 0.856817 0.957084
vt 0.873716 0.945711
vt 0.873511 0.958515
vt 0.872247 0.956867
vt 0.872247 0.945611
vt 0.874304 0.932384
vt 0.874304 0.925697
vt 0.875177 0.925640
vt 0.875177 0.932327
vt 0.868699 0.956868
vt 0.868699 0.945613
vt 0.870168 0.945709
vt 0.869964 0.958515
vt 0.851169 0.932956
vt 0.851169 0.943466
vt 0.849582 0.944997
vt 0.849798 0.933046
vt 0.859244 0.931662
vt 0.859244 0.942122
vt 0.857649 0.943657
vt 0.857879 0.931662
vt 0.862339 0.912806
vt 0.862339 0.919492
vt 0.861466 0.919550
vt 0.861466 0.912863
vt 0.846032 0.956868
vt 0.846032 0.945613
vt 0.847501 0.945709
vt 0.847297 0.958515
vt 0.873716 0.959131
vt 0.875181 0.970384
vt 0.873712 0.970384
vt 0.872247 0.959223
vt 0.853186 0.957174
vt 0.853186 0.946663
vt 0.854774 0.945131
vt 0.854558 0.957084
vt 0.858057 0.919244
vt 0.858057 0.913004
vt 0.859000 0.912095
vt 0.858872 0.919195
vt 0.860851 0.919759
vt 0.860851 0.925999
vt 0.859908 0.926908
vt 0.860036 0.919808
vt 0.859908 0.929082
vt 0.867008 0.929210
vt 0.867058 0.930025
vt 0.860817 0.930025
vt 0.868028 0.932479
vt 0.867812 0.944430
vt 0.866440 0.944517
vt 0.866440 0.934010
vt 0.847501 0.959131
vt 0.848966 0.970384
vt 0.847497 0.970384
vt 0.846032 0.959223
vt 0.862990 0.919857
vt 0.869231 0.919857
vt 0.870140 0.920800
vt 0.863039 0.920672
vt 0.866771 0.969158
vt 0.866440 0.959432
vt 0.868083 0.957789
vt 0.868083 0.970384
vt 0.850292 0.910509
vt 0.856532 0.910509
vt 0.857441 0.911452
vt 0.850341 0.911324
vt 0.862339 0.920165
vt 0.862339 0.926851
vt 0.861466 0.926908
vt 0.861466 0.920222
vt 0.857441 0.914569
vt 0.851202 0.914569
vt 0.850292 0.913626
vt 0.857392 0.913754
vt 0.854782 0.932521
vt 0.854782 0.942981
vt 0.853186 0.944516
vt 0.853416 0.932521
vt 0.856702 0.959015
vt 0.857033 0.968740
vt 0.855390 0.970384
vt 0.855390 0.957789
vt 0.849582 0.956867
vt 0.849582 0.945613
vt 0.851050 0.945709
vt 0.850846 0.958514
vt 0.870755 0.932341
vt 0.870755 0.925655
vt 0.871628 0.925597
vt 0.871628 0.932284
vt 0.865824 0.931619
vt 0.865824 0.942126
vt 0.864236 0.943657
vt 0.864452 0.931706
vt 0.866440 0.957174
vt 0.866440 0.946664
vt 0.868028 0.945132
vt 0.867812 0.957084
vt 0.862990 0.912066
vt 0.869230 0.912066
vt 0.870139 0.913009
vt 0.863039 0.912881
vt 0.870139 0.914567
vt 0.863900 0.914567
vt 0.862990 0.913624
vt 0.870090 0.913752
vt 0.850292 0.919859
vt 0.856532 0.919859
vt 0.857441 0.920802
vt 0.850341 0.920674
vt 0.867057 0.928467
vt 0.860817 0.928467
vt 0.859908 0.927524
vt 0.867008 0.927652
vt 0.862991 0.902716
vt 0.869230 0.902716
vt 0.870139 0.903659
vt 0.863040 0.903531
vt 0.857441 0.900571
vt 0.851202 0.900571
vt 0.850292 0.899629
vt 0.857392 0.899756
vt 0.850292 0.901187
vt 0.856531 0.901187
vt 0.857441 0.902130
vt 0.850341 0.902002
vt 0.870139 0.902101
vt 0.863900 0.902101
vt 0.862991 0.901158
vt 0.870090 0.901286
vt 0.870168 0.959131
vt 0.871632 0.970384
vt 0.870163 0.970384
vt 0.868699 0.959222
vt 0.853458 0.969157
vt 0.853130 0.959432
vt 0.854774 0.957789
vt 0.854770 0.970384
vt 0.875177 0.918281
vt 0.875177 0.924967
vt 0.874304 0.925024
vt 0.874304 0.918338
vt 0.857033 0.932521
vt 0.857033 0.942980
vt 0.855438 0.944516
vt 0.855668 0.932521
vt 0.857980 0.969158
vt 0.857649 0.959432
vt 0.859292 0.957789
vt 0.859292 0.970384
vt 0.864355 0.955526
vt 0.864355 0.944272
vt 0.865824 0.944369
vt 0.865620 0.957174
vt 0.861466 0.912191
vt 0.861466 0.905504
vt 0.862339 0.905447
vt 0.862339 0.912134
vt 0.865493 0.959015
vt 0.865824 0.968740
vt 0.864181 0.970384
vt 0.864181 0.957789
vt 0.846032 0.944998
vt 0.846032 0.934488
vt 0.847620 0.932956
vt 0.847404 0.944908
vt 0.861496 0.930641
vt 0.861496 0.941146
vt 0.859908 0.942677
vt 0.860124 0.930726
vt 0.848235 0.920801
vt 0.848363 0.913701
vt 0.849178 0.913652
vt 0.849178 0.919892
vt 0.846677 0.920801
vt 0.846677 0.914562
vt 0.847620 0.913652
vt 0.847492 0.920752
vt 0.870139 0.917684
vt 0.863039 0.917556
vt 0.862990 0.916741
vt 0.869230 0.916741
vt 0.857441 0.916127
vt 0.851202 0.916127
vt 0.850292 0.915184
vt 0.857392 0.915312
vt 0.870139 0.916125
vt 0.863900 0.916125
vt 0.862990 0.915182
vt 0.870090 0.915310
vt 0.862990 0.910508
vt 0.869230 0.910508
vt 0.870139 0.911450
vt 0.863039 0.911323
vt 0.857441 0.919244
vt 0.851201 0.919244
vt 0.850292 0.918301
vt 0.857392 0.918429
vt 0.872746 0.913077
vt 0.872746 0.906837
vt 0.873689 0.905928
vt 0.873561 0.913028
vt 0.862991 0.905833
vt 0.869230 0.905833
vt 0.870139 0.906776
vt 0.863040 0.906648
vt 0.870139 0.908334
vt 0.863900 0.908334
vt 0.862991 0.907391
vt 0.870090 0.907519
vt 0.860851 0.904230
vt 0.860851 0.910469
vt 0.859908 0.911379
vt 0.860036 0.904279
vt 0.862990 0.918299
vt 0.869231 0.918299
vt 0.870140 0.919242
vt 0.863039 0.919114
vt 0.870139 0.905217
vt 0.863900 0.905217
vt 0.862991 0.904275
vt 0.870090 0.904402
vt 0.850292 0.932341
vt 0.850292 0.922807
vt 0.851733 0.921418
vt 0.851537 0.932265
vt 0.850292 0.916742
vt 0.856532 0.916742
vt 0.857441 0.917685
vt 0.850341 0.917557
vt 0.857441 0.913010
vt 0.851202 0.913010
vt 0.850292 0.912067
vt 0.857392 0.912195
vt 0.849676 0.921417
vt 0.849676 0.930951
vt 0.848235 0.932341
vt 0.848431 0.921494
vt 0.862991 0.908949
vt 0.869230 0.908949
vt 0.870139 0.909892
vt 0.863040 0.909764
vt 0.846179 0.932341
vt 0.846179 0.922806
vt 0.847620 0.921417
vt 0.847424 0.932264
vt 0.870140 0.921416
vt 0.870140 0.930951
vt 0.868699 0.932341
vt 0.868895 0.921494
vt 0.848235 0.913037
vt 0.848235 0.906797
vt 0.849178 0.905888
vt 0.849050 0.912988
vt 0.851235 0.902745
vt 0.851235 0.908984
vt 0.850292 0.909894
vt 0.850420 0.902794
vt 0.872130 0.905927
vt 0.872130 0.912167
vt 0.871187 0.913076
vt 0.871315 0.905976
vt 0.859908 0.919143
vt 0.859908 0.912904
vt 0.860851 0.911994
vt 0.860723 0.919094
vn 0.000000 1.000000 0.000000
vn 0.000000 0.999969 0.000000
vn 0.000000 0.000000 -1.000000
vn 0.000000 0.000000 1.000000
vn 1.000000 0.000000 0.000000
vn 0.999969 0.000000 0.000000
vn -1.000000 0.000000 0.000000
vn -0.999969 0.000000 0.000000
vn 0.000000 0.000000 0.999969
vn 0.000000 0.000000 -0.999969
vn 0.000000 -1.000000 0.000000
vn 0.000000 -0.999969 0.000000
vn 0.577349 0.577349 -0.577349
vn -0.577349 0.577349 -0.577349
vn -0.577349 0.577349 0.577349
vn 0.577349 0.577349 0.577349
vn 0.301492 0.904508 -0.301492
vn -0.707083 0.707083 0.000000
vn 0.301492 0.904508 0.301492
vn -0.301492 0.904508 0.301492
vn 0.707083 0.707083 0.000000
vn -0.301492 0.904508 -0.301492
vn 0.301492 -0.904508 -0.301492
vn -0.301492 -0.904508 -0.301492
vn -0.301492 -0.904508 0.301492
vn 0.301492 -0.904508 0.301492
vn -0.577349 -0.577349 -0.577349
vn 0.577349 -0.577349 -0.577349
vn 0.577349 -0.577349 0.577349
vn -0.577349 -0.577349 0.577349
vn 0.707083 -0.707083 0.000000
vn -0.707083 -0.707083 0.000000
usemtl ABCmat
s 1
f 9/1/1 11/2/1 5/3/1 7/4/1
f 47/5/2 11/2/1 12/6/1 48/7/1
f 9/1/1 42/8/1 44/9/1 10/10/1
f 11/2/1 9/1/1 10/10/1 12/6/1
f 6/11/1 8/12/1 7/4/1 5/3/1
f 8/12/1 36/13/1 35/14/1 7/4/1
f 5/3/1 33/15/1 34/16/1 6/11/1
f 97/17/3 101/18/3 102/19/3 98/20/3
f 103/21/4 99/22/4 100/23/4 104/24/4
f 66/25/5 65/26/5 67/27/5 91/28/6
f 27/29/7 69/30/7 68/31/7 70/32/8
f 90/33/5 72/34/5 71/35/5 73/36/5
f 25/37/7 74/38/7 69/30/7 27/29/7
f 76/39/7 75/40/7 74/38/7 25/37/7
f 86/41/7 78/42/7 77/43/7 89/44/7
f 23/45/5 79/46/5 80/47/5 85/48/5
f 21/49/5 81/50/5 79/46/5 23/45/5
f 92/51/7 82/52/7 83/53/7 87/54/7
f 88/55/6 84/56/5 81/50/5 21/49/5
f 106/57/9 105/58/4 107/59/4 108/60/9
f 110/61/10 109/62/3 111/63/3 112/64/10
f 114/65/4 113/66/4 115/67/4 116/68/4
f 118/69/3 117/70/3 119/71/3 120/72/3
f 50/3/11 49/2/11 51/1/11 52/4/11
f 57/6/11 49/2/11 54/5/12 53/7/11
f 55/9/11 56/8/11 51/1/11 58/10/11
f 58/10/11 51/1/11 49/2/11 57/6/11
f 52/4/11 59/12/11 61/11/11 50/3/11
f 62/14/11 60/13/12 59/12/11 52/4/11
f 50/3/11 61/11/11 63/16/11 64/15/11
f 1/73/13 2/74/14 34/75/1 33/76/1
f 35/77/1 36/78/1 4/79/15 3/80/16
f 37/81/17 1/82/13 33/83/1 5/84/1
f 6/85/1 34/86/1 2/87/14 38/88/18
f 7/89/1 35/90/1 3/91/16 39/92/19
f 8/93/1 6/94/1 38/95/18 40/96/18
f 36/97/1 8/98/1 40/99/18 4/100/15
f 42/101/1 9/102/1 41/103/20 13/104/15
f 10/105/1 44/106/1 14/107/16 43/108/21
f 12/109/1 10/110/1 43/111/21 45/112/21
f 11/113/1 47/114/2 15/115/14 46/116/22
f 48/117/1 12/118/1 45/119/21 16/120/13
f 44/121/1 42/122/1 13/123/15 14/124/16
f 47/125/2 48/126/1 16/127/13 15/128/14
f 9/129/1 7/130/1 39/131/19 41/132/20
f 5/133/1 11/134/1 46/135/22 37/136/17
f 49/137/11 50/138/11 28/139/23 22/140/24
f 52/141/11 51/142/11 24/143/25 26/144/26
f 53/145/11 54/146/12 18/147/27 17/148/28
f 56/149/11 55/150/11 19/151/29 20/152/30
f 57/153/11 53/154/11 17/155/28 93/156/31
f 54/157/12 49/158/11 22/159/24 18/160/27
f 58/161/11 57/162/11 93/163/31 94/164/31
f 55/165/11 58/166/11 94/167/31 19/168/29
f 51/169/11 56/170/11 20/171/30 24/172/25
f 59/173/11 60/174/12 29/175/30 95/176/32
f 61/177/11 59/178/11 95/179/32 96/180/32
f 62/181/11 52/182/11 26/183/26 30/184/29
f 63/185/11 61/186/11 96/187/32 31/188/27
f 50/189/11 64/190/11 32/191/28 28/192/23
f 60/193/12 62/194/11 30/195/29 29/196/30
f 64/197/11 63/198/11 31/199/27 32/200/28
f 32/201/28 1/202/13 65/203/5 66/204/5
f 1/205/13 37/206/17 67/207/5 65/208/5
f 68/209/7 69/210/7 38/211/18 2/212/14
f 70/213/8 68/214/7 2/215/14 31/216/27
f 71/217/5 72/218/5 39/219/19 3/220/16
f 73/221/5 71/222/5 3/223/16 30/224/29
f 69/225/7 74/226/7 40/227/18 38/228/18
f 75/229/7 76/230/7 29/231/30 4/232/15
f 74/233/7 75/234/7 4/235/15 40/236/18
f 77/237/7 78/238/7 13/239/15 41/240/20
f 80/241/5 79/242/5 43/243/21 14/244/16
f 79/245/5 81/246/5 45/247/21 43/248/21
f 83/249/7 82/250/7 46/251/22 15/252/14
f 81/253/5 84/254/5 16/255/13 45/256/21
f 85/257/5 80/258/5 14/259/16 19/260/29
f 78/261/7 86/262/7 20/263/30 13/264/15
f 87/265/7 83/266/7 15/267/14 18/268/27
f 84/269/5 88/270/6 17/271/28 16/272/13
f 89/273/7 77/274/7 41/275/20 24/276/25
f 72/277/5 90/278/5 26/279/26 39/280/19
f 91/281/6 67/282/5 37/283/17 28/284/23
f 82/285/7 92/286/7 22/287/24 46/288/22
f 88/289/6 21/290/5 93/291/31 17/292/28
f 92/293/7 87/294/7 18/295/27 22/296/24
f 21/297/5 23/298/5 94/299/31 93/300/31
f 23/301/5 85/302/5 19/303/29 94/304/31
f 86/305/7 89/306/7 24/307/25 20/308/30
f 76/309/7 25/310/7 95/311/32 29/312/30
f 25/313/7 27/314/7 96/315/32 95/316/32
f 90/317/5 73/318/5 30/319/29 26/320/26
f 27/321/7 70/322/8 31/323/27 96/324/32
f 66/325/5 91/326/6 28/327/23 32/328/28
f 2/329/14 1/330/13 97/331/3 98/332/3
f 100/333/4 99/334/4 3/335/16 4/336/15
f 1/337/13 32/338/28 101/339/3 97/340/3
f 98/341/3 102/342/3 31/343/27 2/344/14
f 99/345/4 103/346/4 30/347/29 3/348/16
f 104/349/4 100/350/4 4/351/15 29/352/30
f 105/353/4 106/354/9 19/355/29 14/356/16
f 107/357/4 105/358/4 14/359/16 13/360/15
f 108/361/9 107/362/4 13/363/15 20/364/30
f 109/365/3 110/366/10 18/367/27 15/368/14
f 111/369/3 109/370/3 15/371/14 16/372/13
f 112/373/10 111/374/3 16/375/13 17/376/28
f 113/377/4 114/378/4 24/379/25 41/380/20
f 115/381/4 113/382/4 41/383/20 39/384/19
f 116/385/4 115/386/4 39/387/19 26/388/26
f 117/389/3 118/390/3 28/391/23 37/392/17
f 119/393/3 117/394/3 37/395/17 46/396/22
f 120/397/3 119/398/3 46/399/22 22/400/24
f 118/401/3 120/402/3 22/403/24 28/404/23
f 114/405/4 116/406/4 26/407/26 24/408/25
f 110/409/10 112/410/10 17/411/28 18/412/27
f 106/413/9 108/414/9 20/415/30 19/416/29
f 103/417/4 104/418/4 29/419/30 30/420/29
f 102/421/3 101/422/3 32/423/28 31/424/27
