# Blender v2.65 (sub 0) OBJ File: 'letters.blend'
# www.blender.org
mtllib LetterN.mtl
o LetterN
v 0.650000 0.000000 0.000000
v 0.500000 0.000000 0.000000
v 0.650000 0.000000 -1.000000
v 0.500000 0.000000 -1.000000
v 0.000000 0.000000 -1.000000
v 0.149999 0.000000 -1.000000
v 0.000000 0.000000 0.000000
v 0.150000 0.000000 0.000000
v 0.150000 0.000000 -0.700000
v 0.500000 0.000000 -0.300000
v 0.500000 0.150000 0.000000
v 0.150000 0.150000 -0.700000
v 0.149999 0.150000 -1.000000
v 0.500000 0.150000 -0.300000
v 0.000000 0.150000 -1.000000
v 0.000000 0.150000 0.000000
v 0.650000 0.150000 0.000000
v 0.650000 0.150000 -1.000000
v 0.500000 0.150000 -1.000000
v 0.150000 0.150000 0.000000
v 0.350000 0.000000 -0.300000
v 0.350000 0.150000 -0.300000
v 0.300000 0.000000 -0.700000
v 0.300000 0.150000 -0.700000
v 0.649900 0.000000 -0.000100
v 0.500062 0.000000 -0.000100
v 0.649900 0.000000 -0.999900
v 0.500100 0.000000 -0.999900
v 0.000100 0.000000 -0.999900
v 0.149938 0.000000 -0.999900
v 0.000100 0.000000 -0.000100
v 0.149900 0.000000 -0.000100
v 0.149900 0.000000 -0.700424
v 0.500100 0.000000 -0.299576
v 0.000100 0.150000 -0.999900
v 0.000100 0.150000 -0.000100
v 0.649900 0.150000 -0.000100
v 0.649900 0.150000 -0.999900
v 0.500100 0.150000 -0.299576
v 0.500100 0.150000 -0.999900
v 0.149900 0.150000 -0.700424
v 0.149900 0.150000 -0.000100
v 0.149938 0.150000 -0.999900
v 0.500062 0.150000 -0.000100
v 0.350089 0.000000 -0.300045
v 0.350089 0.150000 -0.300045
v 0.299911 0.000000 -0.699955
v 0.299911 0.150000 -0.699955
v 0.649900 0.000100 0.000000
v 0.500100 0.000100 0.000000
v 0.649900 0.000100 -1.000000
v 0.500100 0.000100 -1.000000
v 0.000100 0.000100 -1.000000
v 0.149899 0.000100 -1.000000
v 0.000100 0.000100 0.000000
v 0.149900 0.000100 0.000000
v 0.500100 0.149900 0.000000
v 0.149899 0.149900 -1.000000
v 0.000100 0.149900 -1.000000
v 0.000100 0.149900 0.000000
v 0.649900 0.149900 0.000000
v 0.649900 0.149900 -1.000000
v 0.500100 0.149900 -1.000000
v 0.149900 0.149900 0.000000
v 0.150000 0.000100 -0.000100
v 0.150000 0.000100 -0.699900
v 0.650000 0.000100 -0.000100
v 0.650000 0.000100 -0.999900
v 0.150000 0.149900 -0.699900
v 0.499955 0.000100 -0.300089
v 0.499955 0.149900 -0.300089
v 0.150044 0.000100 -0.999911
v 0.150044 0.149900 -0.999911
v 0.650000 0.149900 -0.000100
v 0.650000 0.149900 -0.999900
v 0.150000 0.149900 -0.000100
v 0.300000 0.000100 -0.700000
v 0.300000 0.149900 -0.700000
v 0.500000 0.000100 -0.999900
v 0.500000 0.000100 -0.300100
v 0.000000 0.000100 -0.999900
v 0.000000 0.000100 -0.000100
v 0.150044 0.000100 -0.699911
v 0.150044 0.149900 -0.699911
v 0.499955 0.000100 -0.000089
v 0.499955 0.149900 -0.000089
v 0.500000 0.149900 -0.300100
v 0.000000 0.149900 -0.999900
v 0.000000 0.149900 -0.000100
v 0.500000 0.149900 -0.999900
v 0.350000 0.000100 -0.300000
v 0.350000 0.149900 -0.300000
vt 0.636734 0.019156
vt 0.492645 0.307216
vt 0.492645 0.980843
vt 0.636734 0.980844
vt 0.011706 0.980843
vt 0.155795 0.692783
vt 0.155795 0.019156
vt 0.011706 0.019156
vt 0.982172 0.800422
vt 0.891467 0.800422
vt 0.891467 0.195034
vt 0.982172 0.195034
vt 0.978238 0.966437
vt 0.887533 0.966437
vt 0.887533 0.361048
vt 0.978238 0.361048
vt 0.978643 0.520154
vt 0.887938 0.520154
vt 0.887938 0.096419
vt 0.978643 0.096419
vt 0.887938 0.520729
vt 0.978643 0.520729
vt 0.978644 0.944464
vt 0.887938 0.944464
vt 0.886989 0.276881
vt 0.977694 0.276881
vt 0.977694 0.367586
vt 0.886989 0.367586
vt 0.981700 0.144681
vt 0.890994 0.144681
vt 0.890994 0.053976
vt 0.981700 0.053976
vt 0.981700 0.235961
vt 0.890995 0.235961
vt 0.890995 0.145256
vt 0.981700 0.145256
vt 0.888481 0.015652
vt 0.979187 0.015652
vt 0.979187 0.106357
vt 0.888481 0.106357
vt 0.886989 0.841926
vt 0.886989 0.638892
vt 0.977694 0.638892
vt 0.977695 0.841926
vt 0.886989 0.368161
vt 0.977695 0.368161
vt 0.979187 0.106932
vt 0.979187 0.309966
vt 0.888482 0.309966
vt 0.888481 0.106932
vt 0.979187 0.580697
vt 0.888481 0.580697
vt 0.300087 0.692333
vt 0.155831 0.980843
vt 0.348353 0.307667
vt 0.492608 0.019156
vt 0.860829 0.719302
vt 0.860705 0.726195
vt 0.859914 0.726244
vt 0.859914 0.720185
vt 0.855325 0.719303
vt 0.855325 0.725361
vt 0.854410 0.726243
vt 0.854534 0.719350
vt 0.858822 0.719302
vt 0.858822 0.725362
vt 0.857907 0.726244
vt 0.858031 0.719351
vt 0.862412 0.948601
vt 0.862412 0.942544
vt 0.863327 0.941661
vt 0.863203 0.948554
vt 0.861547 0.735973
vt 0.861547 0.721949
vt 0.863378 0.722068
vt 0.863123 0.738026
vt 0.864890 0.841763
vt 0.864211 0.863606
vt 0.863282 0.855693
vt 0.863282 0.839734
vt 0.854309 0.738599
vt 0.854309 0.757357
vt 0.852354 0.755531
vt 0.851861 0.741048
vt 0.859351 0.846677
vt 0.859844 0.861159
vt 0.857396 0.863606
vt 0.857396 0.844850
vt 0.851844 0.861781
vt 0.851351 0.847299
vt 0.853799 0.844850
vt 0.853799 0.863606
vt 0.856839 0.740426
vt 0.857332 0.754910
vt 0.854884 0.757357
vt 0.854884 0.738599
vt 0.860419 0.844142
vt 0.860419 0.831047
vt 0.862398 0.829138
vt 0.862129 0.844030
vt 0.862707 0.844717
vt 0.862707 0.862243
vt 0.861669 0.863606
vt 0.860419 0.854406
vt 0.862598 0.967627
vt 0.862598 0.973684
vt 0.861683 0.974567
vt 0.861807 0.967674
vt 0.863963 0.948095
vt 0.863902 0.942070
vt 0.864810 0.941661
vt 0.864810 0.948156
vt 0.856417 0.726243
vt 0.856417 0.720185
vt 0.857332 0.719302
vt 0.857208 0.726196
vt 0.865510 0.960619
vt 0.865571 0.966643
vt 0.864663 0.967052
vt 0.864663 0.960559
vt 0.859618 0.960112
vt 0.859618 0.969410
vt 0.858291 0.970210
vt 0.858404 0.960112
vt 0.853835 0.723491
vt 0.853835 0.737892
vt 0.852975 0.738024
vt 0.851959 0.731438
vt 0.856449 0.969818
vt 0.856449 0.960112
vt 0.857716 0.960195
vt 0.857603 0.970759
vt 0.851354 0.951563
vt 0.851354 0.940335
vt 0.852817 0.940454
vt 0.852817 0.951659
vt 0.857184 0.951452
vt 0.857184 0.942112
vt 0.858505 0.941314
vt 0.858403 0.951372
vt 0.852460 0.970457
vt 0.852460 0.959246
vt 0.853923 0.959150
vt 0.853923 0.970361
vt 0.864549 0.829454
vt 0.865810 0.839159
vt 0.864543 0.839159
vt 0.863282 0.829534
vt 0.866916 0.846155
vt 0.866114 0.863606
vt 0.865465 0.857272
vt 0.865465 0.845966
vt 0.863173 0.974567
vt 0.863297 0.967674
vt 0.864088 0.967627
vt 0.864088 0.973684
vt 0.855988 0.959537
vt 0.855988 0.953479
vt 0.856904 0.952596
vt 0.856780 0.959489
vt 0.861683 0.967052
vt 0.861683 0.960995
vt 0.862598 0.960112
vt 0.862474 0.967005
vt 0.864088 0.960112
vt 0.864088 0.966169
vt 0.863173 0.967052
vt 0.863297 0.960159
vt 0.857819 0.975190
vt 0.863876 0.975190
vt 0.864759 0.976106
vt 0.857867 0.975982
vt 0.850304 0.975190
vt 0.856361 0.975190
vt 0.857244 0.976106
vt 0.850351 0.975982
vt 0.857244 0.973125
vt 0.851187 0.973125
vt 0.850304 0.972210
vt 0.857196 0.972334
vt 0.857479 0.958622
vt 0.863536 0.958622
vt 0.864419 0.959537
vt 0.857526 0.959413
vt 0.863360 0.825217
vt 0.870253 0.825341
vt 0.870301 0.826133
vt 0.864242 0.826133
vt 0.855844 0.826707
vt 0.861902 0.826707
vt 0.862785 0.827623
vt 0.855891 0.827499
vt 0.867861 0.951452
vt 0.861804 0.951452
vt 0.860922 0.950537
vt 0.867814 0.950661
vt 0.857244 0.974615
vt 0.851187 0.974615
vt 0.850304 0.973700
vt 0.857197 0.973824
vt 0.860193 0.967052
vt 0.860193 0.960995
vt 0.861108 0.960112
vt 0.860984 0.967005
vt 0.861108 0.967627
vt 0.861108 0.973684
vt 0.860193 0.974567
vt 0.860317 0.967674
vt 0.861837 0.941661
vt 0.861837 0.947718
vt 0.860922 0.948601
vt 0.861046 0.941708
vt 0.854498 0.959537
vt 0.854498 0.953479
vt 0.855413 0.952596
vt 0.855289 0.959489
vt 0.865988 0.723862
vt 0.866401 0.735978
vt 0.864353 0.738026
vt 0.864353 0.722334
vt 0.854374 0.863606
vt 0.854374 0.844850
vt 0.856328 0.846677
vt 0.856821 0.861159
vt 0.858822 0.718727
vt 0.852764 0.718727
vt 0.851881 0.717811
vt 0.858775 0.717936
vt 0.857479 0.955641
vt 0.863536 0.955641
vt 0.864419 0.956556
vt 0.857526 0.956432
vt 0.869688 0.940739
vt 0.863632 0.940739
vt 0.862749 0.939824
vt 0.869641 0.939948
vt 0.864419 0.953512
vt 0.857526 0.953388
vt 0.857479 0.952596
vt 0.863536 0.952596
vt 0.858400 0.755531
vt 0.857907 0.741049
vt 0.860355 0.738601
vt 0.860355 0.757357
vt 0.870894 0.719883
vt 0.864836 0.719883
vt 0.863953 0.718968
vt 0.870846 0.719092
vt 0.855233 0.939824
vt 0.861291 0.939824
vt 0.862174 0.940739
vt 0.855281 0.940615
vt 0.857809 0.842748
vt 0.857396 0.830631
vt 0.859444 0.828583
vt 0.859444 0.844275
vt 0.854658 0.941953
vt 0.854658 0.951659
vt 0.853392 0.951576
vt 0.853568 0.940533
vt 0.867966 0.827168
vt 0.867966 0.837635
vt 0.866385 0.839159
vt 0.866600 0.827258
vt 0.855233 0.951659
vt 0.855233 0.942638
vt 0.856609 0.941314
vt 0.856411 0.951659
vt 0.859366 0.738026
vt 0.857907 0.726819
vt 0.859370 0.726819
vt 0.860829 0.737934
vt 0.852163 0.842748
vt 0.851751 0.830631
vt 0.853799 0.828583
vt 0.853799 0.844275
vt 0.864446 0.755531
vt 0.863953 0.741049
vt 0.866401 0.738601
vt 0.866401 0.757357
vt 0.861204 0.937716
vt 0.867260 0.937717
vt 0.868143 0.938632
vt 0.861251 0.938508
vt 0.864419 0.955002
vt 0.858361 0.955002
vt 0.857479 0.954087
vt 0.864371 0.954211
vt 0.860629 0.938632
vt 0.854571 0.938632
vt 0.853688 0.937716
vt 0.860581 0.937841
vt 0.855844 0.825217
vt 0.861902 0.825217
vt 0.862785 0.826133
vt 0.855891 0.826008
vt 0.862885 0.740427
vt 0.863378 0.754909
vt 0.860930 0.757357
vt 0.860930 0.738601
vt 0.864419 0.958047
vt 0.858361 0.958047
vt 0.857479 0.957131
vt 0.864371 0.957255
vt 0.863953 0.720458
vt 0.870011 0.720458
vt 0.870894 0.721373
vt 0.864000 0.721249
vt 0.856009 0.830111
vt 0.856422 0.842227
vt 0.854374 0.844275
vt 0.854374 0.828583
vt 0.859080 0.951366
vt 0.859080 0.941661
vt 0.860347 0.941744
vt 0.860347 0.951452
vt 0.850304 0.970457
vt 0.850304 0.959990
vt 0.851885 0.958466
vt 0.851670 0.970367
vt 0.855874 0.960112
vt 0.855874 0.969133
vt 0.854498 0.970457
vt 0.854696 0.960112
vt 0.855873 0.726818
vt 0.857332 0.738024
vt 0.855869 0.738024
vt 0.854410 0.726908
vn 0.000000 -1.000000 0.000000
vn -1.000000 0.000000 0.000000
vn 1.000000 0.000000 0.000000
vn 0.000000 0.000000 1.000000
vn 0.000000 0.000000 -1.000000
vn 0.000000 1.000000 0.000000
vn -0.894406 0.000000 0.447249
vn -0.894406 0.000000 0.447188
vn -0.894375 -0.000031 0.447249
vn -0.894375 0.000031 0.447249
vn 0.894345 0.000061 -0.447340
vn 0.894406 0.000000 -0.447188
vn 0.894345 -0.000061 -0.447340
vn 0.894375 -0.000031 -0.447249
vn 0.894375 0.000031 -0.447249
vn 0.000000 0.999969 0.000000
vn 0.000000 -0.999969 0.000000
vn 0.577349 -0.577349 0.577349
vn -0.418287 -0.605701 0.676840
vn -0.577349 -0.577349 -0.577349
vn 0.577349 -0.577349 -0.577349
vn 0.418226 -0.605701 -0.676870
vn -0.577349 -0.577349 0.577349
vn 0.028260 -0.992370 0.119785
vn -0.028260 -0.992370 -0.119785
vn -0.577349 0.577349 -0.577349
vn -0.577349 0.577349 0.577349
vn 0.577349 0.577349 0.577349
vn 0.577349 0.577349 -0.577349
vn -0.028260 0.992370 -0.119785
vn 0.028260 0.992370 0.119785
vn 0.418226 0.605701 -0.676870
vn -0.418287 0.605701 0.676840
vn -0.632435 -0.707083 0.316202
vn -0.632435 0.707083 0.316202
vn 0.632435 -0.707114 -0.316202
vn 0.632435 0.707114 -0.316202
usemtl ABCmat
s 1
f 25/1/1 34/2/1 28/3/1 27/4/1
f 29/5/1 33/6/1 32/7/1 31/8/1
f 82/9/2 89/10/2 88/11/2 81/12/2
f 74/13/3 67/14/3 68/15/3 75/16/3
f 80/17/2 87/18/2 90/19/2 79/20/2
f 66/21/3 69/22/3 76/23/3 65/24/3
f 56/25/4 64/26/4 60/27/4 55/28/4
f 53/29/5 59/30/5 58/31/5 54/32/5
f 52/33/5 63/34/5 62/35/5 51/36/5
f 49/37/4 61/38/4 57/39/4 50/40/4
f 35/5/6 36/8/6 42/7/6 41/6/6
f 37/1/6 38/4/6 40/3/6 39/2/6
f 86/41/7 92/42/8 91/43/8 85/44/7
f 92/42/8 84/45/9 83/46/10 91/43/8
f 73/47/11 78/48/12 77/49/12 72/50/13
f 78/48/12 71/51/14 70/52/15 77/49/12
f 41/6/6 48/53/6 43/54/6 35/5/6
f 41/6/6 46/55/16 39/2/6 48/53/6
f 44/56/6 37/1/6 39/2/6 46/55/16
f 25/1/1 26/56/1 45/55/17 34/2/1
f 33/6/1 47/53/1 34/2/1 45/55/17
f 29/5/1 30/54/1 47/53/1 33/6/1
f 1/57/18 2/58/19 26/59/1 25/60/1
f 27/61/1 28/62/1 4/63/20 3/64/21
f 30/65/1 29/66/1 5/67/20 6/68/22
f 31/69/1 32/70/1 8/71/18 7/72/23
f 32/73/1 33/74/1 9/75/24 8/76/18
f 28/77/1 34/78/1 10/79/25 4/80/20
f 3/81/21 1/82/18 25/83/1 27/84/1
f 29/85/1 31/86/1 7/87/23 5/88/20
f 36/89/6 35/90/6 15/91/26 16/92/27
f 38/93/6 37/94/6 17/95/28 18/96/29
f 39/97/6 40/98/6 19/99/26 14/100/30
f 41/101/6 42/102/6 20/103/28 12/104/31
f 42/105/6 36/106/6 16/107/27 20/108/28
f 35/109/6 43/110/6 13/111/32 15/112/26
f 40/113/6 38/114/6 18/115/29 19/116/26
f 37/117/6 44/118/6 11/119/33 17/120/28
f 45/121/17 26/122/1 2/123/19 21/124/34
f 33/125/1 45/126/17 21/127/34 9/128/24
f 44/129/6 46/130/16 22/131/35 11/132/33
f 46/133/16 41/134/6 12/135/31 22/136/35
f 47/137/1 30/138/1 6/139/22 23/140/36
f 34/141/1 47/142/1 23/143/36 10/144/25
f 43/145/6 48/146/6 24/147/37 13/148/32
f 48/149/6 39/150/6 14/151/30 24/152/37
f 2/153/19 1/154/18 49/155/4 50/156/4
f 52/157/5 51/158/5 3/159/21 4/160/20
f 53/161/5 54/162/5 6/163/22 5/164/20
f 56/165/4 55/166/4 7/167/23 8/168/18
f 50/169/4 57/170/4 11/171/33 2/172/19
f 54/173/5 58/174/5 13/175/32 6/176/22
f 59/177/5 53/178/5 5/179/20 15/180/26
f 55/181/4 60/182/4 16/183/27 7/184/23
f 1/185/18 17/186/28 61/187/4 49/188/4
f 51/189/5 62/190/5 18/191/29 3/192/21
f 63/193/5 52/194/5 4/195/20 19/196/26
f 64/197/4 56/198/4 8/199/18 20/200/28
f 60/201/4 64/202/4 20/203/28 16/204/27
f 58/205/5 59/206/5 15/207/26 13/208/32
f 62/209/5 63/210/5 19/211/26 18/212/29
f 57/213/4 61/214/4 17/215/28 11/216/33
f 66/217/3 65/218/3 8/219/18 9/220/24
f 1/221/18 3/222/21 68/223/3 67/224/3
f 69/225/3 66/226/3 9/227/24 12/228/31
f 70/229/15 71/230/14 14/231/30 10/232/25
f 73/233/11 72/234/13 6/235/22 13/236/32
f 17/237/28 1/238/18 67/239/3 74/240/3
f 74/241/3 75/242/3 18/243/29 17/244/28
f 75/245/3 68/246/3 3/247/21 18/248/29
f 65/249/3 76/250/3 20/251/28 8/252/18
f 76/253/3 69/254/3 12/255/31 20/256/28
f 72/257/13 77/258/12 23/259/36 6/260/22
f 77/261/12 70/262/15 10/263/25 23/264/36
f 78/265/12 73/266/11 13/267/32 24/268/37
f 71/269/14 78/270/12 24/271/37 14/272/30
f 80/273/2 79/274/2 4/275/20 10/276/25
f 82/277/2 81/278/2 5/279/20 7/280/23
f 83/281/10 84/282/9 12/283/31 9/284/24
f 86/285/7 85/286/7 2/287/19 11/288/33
f 87/289/2 80/290/2 10/291/25 14/292/30
f 81/293/2 88/294/2 15/295/26 5/296/20
f 88/297/2 89/298/2 16/299/27 15/300/26
f 89/301/2 82/302/2 7/303/23 16/304/27
f 79/305/2 90/306/2 19/307/26 4/308/20
f 90/309/2 87/310/2 14/311/30 19/312/26
f 85/313/7 91/314/8 21/315/34 2/316/19
f 91/317/8 83/318/10 9/319/24 21/320/34
f 92/321/8 86/322/7 11/323/33 22/324/35
f 84/325/9 92/326/8 22/327/35 12/328/31
