# Blender v2.65 (sub 0) OBJ File: 'letters.blend'
# www.blender.org
mtllib LetterT.mtl
o LetterT
v 0.650000 -0.000000 -0.850000
v 0.650000 -0.000000 -1.000000
v 0.400001 -0.000000 -0.000000
v 0.250001 -0.000000 0.000000
v 0.250000 -0.000000 -0.849814
v 0.400000 -0.000000 -1.000000
v 0.400000 -0.000000 -0.849884
v 0.250000 -0.000000 -0.999999
v -0.000000 -0.000000 -0.849697
v -0.000000 -0.000000 -0.999999
v 0.650000 0.150000 -1.000000
v 0.650000 0.150000 -0.850000
v -0.000000 0.150000 -0.849697
v -0.000000 0.150000 -0.999999
v 0.250001 0.150000 0.000000
v 0.400001 0.150000 -0.000000
v 0.250000 0.149900 -0.999999
v 0.250000 0.150000 -0.849814
v 0.400000 0.150000 -1.000000
v 0.400000 0.150000 -0.849884
v 0.649900 -0.000000 -0.850100
v 0.649900 -0.000000 -0.999900
v 0.399901 -0.000000 -0.000100
v 0.250101 -0.000000 -0.000100
v 0.400000 -0.000000 -0.999900
v 0.250100 -0.000000 -0.849914
v 0.250000 -0.000000 -0.999899
v 0.000100 -0.000000 -0.999899
v 0.000100 -0.000000 -0.849797
v 0.649900 0.150000 -0.999900
v 0.649900 0.150000 -0.850100
v 0.000100 0.150000 -0.849797
v 0.000100 0.150000 -0.999899
v 0.250101 0.150000 -0.000100
v 0.399901 0.150000 -0.000100
v 0.250000 0.150000 -0.999899
v 0.250100 0.150000 -0.849914
v 0.400000 0.150000 -0.999900
v 0.399900 0.150000 -0.849984
v 0.399900 -0.000000 -0.849984
v 0.399901 0.000100 -0.000000
v 0.250101 0.000100 0.000000
v 0.649900 0.000100 -1.000000
v 0.400000 0.000100 -1.000000
v 0.250000 0.000100 -0.999999
v 0.000100 0.000100 -0.999999
v 0.000100 0.149900 -0.999999
v 0.000100 0.000100 -0.849697
v 0.000100 0.149900 -0.849697
v 0.250101 0.149900 0.000000
v 0.399901 0.149900 -0.000000
v 0.250000 0.150000 -0.999999
v 0.249900 0.149900 -0.849814
v 0.649900 0.149900 -1.000000
v 0.400000 0.149900 -1.000000
v 0.400100 0.000100 -0.849885
v 0.400100 0.149900 -0.849885
v 0.649900 0.149900 -0.850000
v 0.249900 0.000100 -0.849814
v 0.649900 0.000100 -0.850000
v 0.650000 -0.000000 -0.850000
v 0.650000 -0.000000 -1.000000
v 0.250001 -0.000000 0.000000
v 0.250000 -0.000000 -0.849814
v -0.000000 -0.000000 -0.849697
v -0.000000 -0.000000 -0.999999
v 0.650000 0.150000 -1.000000
v 0.650000 0.150000 -0.850000
v -0.000000 0.150000 -0.999999
v -0.000000 0.150000 -0.849697
v 0.400000 -0.000000 -0.849884
v 0.400000 0.150000 -0.849884
v 0.250001 0.150000 0.000000
v 0.250000 0.150000 -0.849814
v 0.400001 0.150000 -0.000000
v 0.400001 -0.000000 -0.000000
vt 0.249915 0.985889
vt 0.250011 0.841982
vt 0.010143 0.841870
vt 0.010143 0.985889
vt 0.633607 0.985890
vt 0.633607 0.842161
vt 0.393740 0.842050
vt 0.393836 0.985889
vt 0.393740 0.026610
vt 0.250011 0.026610
vt 0.989384 0.111657
vt 0.896779 0.111657
vt 0.896779 0.018745
vt 0.989383 0.018745
vt 0.988865 0.767906
vt 0.896260 0.767906
vt 0.896260 0.674806
vt 0.988865 0.674806
vt 0.900427 0.541344
vt 0.900427 0.448555
vt 0.992908 0.448555
vt 0.992908 0.541344
vt 0.988735 0.460768
vt 0.896254 0.460768
vt 0.896254 0.305976
vt 0.988735 0.305976
vt 0.897088 0.706926
vt 0.989569 0.706926
vt 0.989569 0.861656
vt 0.897088 0.861656
vt 0.988736 0.213064
vt 0.896254 0.213063
vt 0.896254 0.058271
vt 0.988736 0.058271
vt 0.899295 0.305364
vt 0.991776 0.305364
vt 0.991776 0.460094
vt 0.899295 0.460094
vt 0.991464 0.472373
vt 0.991464 0.998763
vt 0.898859 0.998763
vt 0.898859 0.472373
vt 0.896254 0.987825
vt 0.896254 0.461392
vt 0.988859 0.461392
vt 0.988859 0.987825
vt 0.859029 0.920683
vt 0.866081 0.920810
vt 0.866130 0.921620
vt 0.859932 0.921620
vt 0.858406 0.924741
vt 0.852210 0.924741
vt 0.851307 0.923804
vt 0.858358 0.923931
vt 0.857558 0.903702
vt 0.866130 0.902587
vt 0.866130 0.903706
vt 0.857628 0.904821
vt 0.849219 0.899733
vt 0.863979 0.899733
vt 0.866130 0.901963
vt 0.849346 0.901659
vt 0.856957 0.938576
vt 0.864964 0.938576
vt 0.866130 0.939785
vt 0.857026 0.939621
vt 0.859023 0.929772
vt 0.865225 0.929772
vt 0.866130 0.930709
vt 0.859072 0.930582
vt 0.859030 0.928211
vt 0.865227 0.928211
vt 0.866130 0.929148
vt 0.859078 0.929021
vt 0.866130 0.920059
vt 0.859927 0.920059
vt 0.859023 0.919122
vt 0.866081 0.919249
vt 0.859030 0.926651
vt 0.865227 0.926651
vt 0.866130 0.927587
vt 0.859079 0.927460
vt 0.866130 0.946129
vt 0.857558 0.947244
vt 0.857558 0.946125
vt 0.866061 0.945010
vt 0.856438 0.940409
vt 0.865010 0.940409
vt 0.866130 0.941528
vt 0.857557 0.941528
vt 0.866130 0.911255
vt 0.858124 0.911255
vt 0.856957 0.910046
vt 0.866061 0.910210
vt 0.856935 0.906312
vt 0.850294 0.906312
vt 0.850237 0.905445
vt 0.856878 0.905445
vt 0.857558 0.931333
vt 0.866130 0.931333
vt 0.866056 0.932452
vt 0.857482 0.932452
vt 0.863844 0.899109
vt 0.845857 0.899108
vt 0.848143 0.897296
vt 0.866130 0.897296
vt 0.848262 0.947868
vt 0.864067 0.947868
vt 0.866130 0.949931
vt 0.850324 0.949931
vt 0.866054 0.918498
vt 0.857481 0.918498
vt 0.857557 0.917379
vt 0.866130 0.917379
vt 0.850237 0.943519
vt 0.856878 0.943519
vt 0.856935 0.944386
vt 0.850294 0.944386
vt 0.856439 0.908303
vt 0.865011 0.908303
vt 0.866130 0.909422
vt 0.857557 0.909421
vt 0.863815 0.952618
vt 0.848011 0.952618
vt 0.848146 0.950555
vt 0.866130 0.950842
vt 0.859030 0.922244
vt 0.865227 0.922244
vt 0.866130 0.923180
vt 0.859079 0.923053
vt 0.866130 0.913089
vt 0.858125 0.913089
vt 0.856958 0.911879
vt 0.866061 0.912044
vt 0.866130 0.943271
vt 0.857559 0.944386
vt 0.857559 0.943267
vt 0.866061 0.942152
vt 0.854778 0.934909
vt 0.854778 0.941096
vt 0.853844 0.941997
vt 0.853970 0.934958
vt 0.853844 0.914922
vt 0.853844 0.908735
vt 0.854779 0.907834
vt 0.854652 0.914873
vt 0.866130 0.924741
vt 0.859933 0.924741
vt 0.859030 0.923804
vt 0.866082 0.923931
vt 0.856958 0.936742
vt 0.864964 0.936742
vt 0.866130 0.937952
vt 0.857027 0.937787
vt 0.866130 0.914922
vt 0.858127 0.914922
vt 0.856961 0.913713
vt 0.866064 0.913877
vt 0.857559 0.906560
vt 0.866130 0.905445
vt 0.866130 0.906564
vt 0.857629 0.907679
vt 0.850237 0.945010
vt 0.856877 0.945010
vt 0.856934 0.945876
vt 0.850294 0.945876
vt 0.852285 0.914921
vt 0.852285 0.908735
vt 0.853220 0.907834
vt 0.853093 0.914873
vt 0.866130 0.916755
vt 0.858128 0.916755
vt 0.856962 0.915546
vt 0.866065 0.915710
vt 0.854779 0.915547
vt 0.854779 0.921733
vt 0.853844 0.922635
vt 0.853971 0.915595
vt 0.853844 0.934284
vt 0.853844 0.928098
vt 0.854778 0.927196
vt 0.854652 0.934236
vt 0.853220 0.915547
vt 0.853220 0.921732
vt 0.852285 0.922634
vt 0.852412 0.915595
vt 0.855403 0.922635
vt 0.855403 0.916448
vt 0.856338 0.915546
vt 0.856211 0.922586
vt 0.855402 0.934285
vt 0.855529 0.927245
vt 0.856337 0.927196
vt 0.856337 0.933383
vt 0.856961 0.934909
vt 0.864964 0.934909
vt 0.866130 0.936118
vt 0.857027 0.935954
vt 0.856934 0.904821
vt 0.850294 0.904821
vt 0.850237 0.903954
vt 0.856877 0.903954
vt 0.866130 0.934285
vt 0.857027 0.934121
vt 0.856961 0.933076
vt 0.864964 0.933076
vt 0.861955 0.848152
vt 0.861955 0.823486
vt 0.865174 0.823486
vt 0.865174 0.848152
vt 0.849182 0.713281
vt 0.849182 0.666499
vt 0.855288 0.666499
vt 0.855288 0.713281
vt 0.858499 0.848152
vt 0.858499 0.823436
vt 0.861726 0.823436
vt 0.861726 0.848152
vt 0.865403 0.848152
vt 0.865403 0.823486
vt 0.868623 0.823486
vt 0.868623 0.848152
vt 0.848907 0.809385
vt 0.864521 0.809385
vt 0.864521 0.811423
vt 0.848907 0.811423
vt 0.858270 0.823436
vt 0.858262 0.848152
vt 0.855036 0.848151
vt 0.855044 0.823435
vt 0.864521 0.807057
vt 0.848907 0.807057
vt 0.848907 0.805019
vt 0.864521 0.805019
vt 0.864521 0.809240
vt 0.848907 0.809240
vt 0.848907 0.807202
vt 0.864521 0.807202
vt 0.864271 0.667459
vt 0.864271 0.714241
vt 0.858164 0.714241
vt 0.858164 0.667459
vt 0.847696 0.767333
vt 0.847696 0.720941
vt 0.853751 0.720941
vt 0.853751 0.767333
vt 0.849038 0.802852
vt 0.864521 0.802852
vt 0.864521 0.804873
vt 0.849038 0.804873
vt 0.864521 0.798374
vt 0.849038 0.798374
vt 0.849038 0.796353
vt 0.864521 0.796353
vt 0.849038 0.798520
vt 0.864521 0.798520
vt 0.864521 0.800540
vt 0.849038 0.800540
vt 0.864521 0.796208
vt 0.849038 0.796208
vt 0.849038 0.794187
vt 0.864521 0.794187
vt 0.864521 0.802707
vt 0.849038 0.802707
vt 0.849038 0.800686
vt 0.864521 0.800686
vt 0.863915 0.720941
vt 0.863915 0.767333
vt 0.857860 0.767333
vt 0.857860 0.720941
vn 0.000000 -1.000000 0.000000
vn 1.000000 0.000000 0.000000
vn -1.000000 0.000000 0.000000
vn 0.000000 0.000000 1.000000
vn 0.000000 0.000000 0.999969
vn 0.000000 0.000000 -1.000000
vn 0.000488 0.000000 0.999969
vn 0.000488 0.000092 0.999969
vn 0.000488 -0.000092 0.999969
vn 0.000732 -0.000092 0.999969
vn 0.000732 0.000092 0.999969
vn 0.000000 1.000000 0.000000
vn 0.000000 -0.707083 -0.707083
vn 0.000366 -0.707144 0.707053
vn 0.000000 -0.707083 0.707083
vn 0.000153 -0.948668 0.316172
vn 0.000366 -0.706992 0.707205
vn 0.000366 0.707144 0.707053
vn 0.000000 0.707083 -0.707083
vn 0.000366 0.706992 0.707205
vn 0.000000 0.707083 0.707083
vn 0.000153 0.948668 0.316172
vn 0.000244 0.948668 0.316263
vn 0.000244 -0.948668 0.316263
usemtl ABCmat
s 1
f 27/1/1 26/2/1 29/3/1 28/4/1
f 22/5/1 21/6/1 40/7/1 25/8/1
f 25/8/1 40/7/1 26/2/1 27/1/1
f 23/9/1 24/10/1 26/2/1 40/7/1
f 68/11/2 61/12/2 62/13/2 67/14/2
f 65/15/3 70/16/3 69/17/3 66/18/3
f 42/19/4 41/20/5 51/21/4 50/22/4
f 46/23/6 47/24/6 17/25/6 45/26/6
f 59/27/7 53/28/7 49/29/7 48/30/7
f 44/31/6 55/32/6 54/33/6 43/34/6
f 45/26/6 17/25/6 55/32/6 44/31/6
f 60/35/8 58/36/9 57/37/10 56/38/11
f 64/39/3 63/40/3 73/41/3 74/42/3
f 76/43/2 71/44/2 72/45/2 75/46/2
f 36/1/12 33/4/12 32/3/12 37/2/12
f 30/5/12 38/8/12 39/7/12 31/6/12
f 38/8/12 36/1/12 37/2/12 39/7/12
f 35/9/12 39/7/12 37/2/12 34/10/12
f 2/47/13 1/48/14 21/49/1 22/50/1
f 24/51/1 23/52/1 3/53/15 4/54/15
f 22/55/1 25/56/1 6/57/13 2/58/13
f 26/59/1 24/60/1 4/61/15 5/62/16
f 27/63/1 28/64/1 10/65/13 8/66/13
f 28/67/1 29/68/1 9/69/17 10/70/13
f 30/71/12 31/72/12 12/73/18 11/74/19
f 32/75/12 33/76/12 14/77/19 13/78/20
f 35/79/12 34/80/12 15/81/21 16/82/21
f 33/83/12 36/84/12 52/85/19 14/86/19
f 37/87/12 32/88/12 13/89/20 18/90/22
f 38/91/12 30/92/12 11/93/19 19/94/19
f 36/95/12 38/96/12 19/97/19 52/98/19
f 31/99/12 39/100/12 20/101/23 12/102/18
f 34/103/12 37/104/12 18/105/22 15/106/21
f 39/107/12 35/108/12 16/109/21 20/110/23
f 29/111/1 26/112/1 5/113/16 9/114/17
f 25/115/1 27/116/1 8/117/13 6/118/13
f 1/119/14 7/120/24 40/121/1 21/122/1
f 23/123/1 40/124/1 7/125/24 3/126/15
f 41/127/5 42/128/4 4/129/15 3/130/15
f 44/131/6 43/132/6 2/133/13 6/134/13
f 46/135/6 45/136/6 8/137/13 10/138/13
f 47/139/6 46/140/6 10/141/13 14/142/19
f 48/143/7 49/144/7 13/145/20 9/146/17
f 50/147/4 51/148/4 16/149/21 15/150/21
f 17/151/6 47/152/6 14/153/19 52/154/19
f 49/155/7 53/156/7 18/157/22 13/158/20
f 54/159/6 55/160/6 19/161/19 11/162/19
f 55/163/6 17/164/6 52/165/19 19/166/19
f 56/167/11 57/168/10 20/169/23 7/170/24
f 57/171/10 58/172/9 12/173/18 20/174/23
f 53/175/7 59/176/7 5/177/16 18/178/22
f 42/179/4 50/180/4 15/181/21 4/182/15
f 51/183/4 41/184/5 3/185/15 16/186/21
f 43/187/6 54/188/6 11/189/19 2/190/13
f 1/191/14 12/192/18 58/193/9 60/194/8
f 59/195/7 48/196/7 9/197/17 5/198/16
f 45/199/6 44/200/6 6/201/13 8/202/13
f 7/203/24 1/204/14 60/205/8 56/206/11
f 1/207/14 2/208/13 62/209/2 61/210/2
f 63/211/3 64/212/3 5/213/16 4/214/15
f 65/215/3 66/216/3 10/217/13 9/218/17
f 68/219/2 67/220/2 11/221/19 12/222/18
f 66/223/3 69/224/3 14/225/19 10/226/13
f 69/227/3 70/228/3 13/229/20 14/230/19
f 70/231/3 65/232/3 9/233/17 13/234/20
f 72/235/2 71/236/2 7/237/24 20/238/23
f 74/239/3 73/240/3 15/241/21 18/242/22
f 75/243/2 72/244/2 20/245/23 16/246/21
f 64/247/3 74/248/3 18/249/22 5/250/16
f 73/251/3 63/252/3 4/253/15 15/254/21
f 76/255/2 75/256/2 16/257/21 3/258/15
f 67/259/2 62/260/2 2/261/13 11/262/19
f 12/263/18 1/264/14 61/265/2 68/266/2
f 71/267/2 76/268/2 3/269/15 7/270/24
