# Blender v2.65 (sub 0) OBJ File: 'letters.blend'
# www.blender.org
mtllib LetterM.mtl
o LetterM
v 0.525078 0.000000 -0.999900
v 0.675019 0.000000 -0.000000
v 0.000000 0.000000 0.000000
v 0.150000 0.000000 -0.000000
v -0.000001 0.000000 -1.000000
v 0.149999 0.000000 -1.000000
v 0.675018 0.000000 -0.718612
v 0.524551 0.000000 -0.719025
v 0.150000 0.000000 -0.721591
v 0.000100 0.000000 -0.721591
v 0.337711 0.000000 -0.357532
v 0.334977 0.000000 -0.643265
v 0.523001 0.000000 -0.000000
v 0.675018 0.000000 -1.000000
v 0.675018 0.150000 -1.000000
v 0.525018 0.150000 -1.000000
v 0.675019 0.150000 -0.000000
v 0.523001 0.150000 -0.000000
v 0.334978 0.150000 -0.643480
v 0.000000 0.150000 0.000000
v 0.150000 0.150000 -0.000000
v -0.000001 0.150000 -1.000000
v 0.149999 0.150000 -1.000000
v 0.337711 0.150000 -0.357532
v -0.000000 0.150000 -0.721591
v 0.150000 0.150000 -0.721591
v 0.675018 0.150000 -0.718612
v 0.524450 0.150000 -0.718612
v 0.000100 0.000000 -0.000100
v 0.149900 0.000000 -0.000100
v 0.000099 0.000000 -0.999900
v 0.149939 0.000000 -0.999900
v 0.674919 0.000000 -0.000100
v 0.674918 0.000000 -0.718612
v 0.149900 0.000000 -0.722004
v 0.337711 0.000000 -0.357750
v 0.674918 0.150000 -0.999900
v 0.525078 0.150000 -0.999900
v 0.674919 0.150000 -0.000100
v 0.523101 0.150000 -0.000100
v 0.000100 0.150000 -0.000100
v 0.149900 0.150000 -0.000100
v 0.000099 0.150000 -0.999900
v 0.149939 0.150000 -0.999900
v 0.000100 0.150000 -0.721591
v 0.149900 0.150000 -0.722004
v 0.674918 0.150000 -0.718612
v 0.524551 0.150000 -0.719025
v 0.334977 0.150000 -0.643265
v 0.337711 0.150000 -0.357750
v 0.525018 0.000000 -1.000000
v 0.674918 0.000000 -0.999900
v 0.523101 0.000000 -0.000100
v -0.000000 0.000100 -0.721591
v 0.524450 0.000000 -0.718612
v 0.334978 0.000000 -0.643480
v 0.675019 0.000100 -0.000100
v 0.675018 0.000100 -0.718612
v 0.675018 0.000100 -0.999900
v 0.675018 0.149900 -0.999900
v 0.150000 0.000100 -0.721491
v 0.150000 0.149900 -0.721491
v 0.150000 0.149900 -0.000100
v 0.675018 0.149900 -0.718612
v 0.675019 0.149900 -0.000100
v 0.334932 0.000100 -0.643569
v 0.334932 0.149900 -0.643569
v 0.337757 0.149900 -0.357621
v 0.524405 0.149900 -0.718523
v 0.337757 0.000100 -0.357621
v 0.150045 0.149900 -0.999911
v 0.524405 0.000100 -0.718523
v 0.150045 0.000100 -0.999911
v 0.150000 0.000100 -0.000100
v 0.150045 0.000100 -0.721503
v 0.337665 0.000100 -0.357621
v 0.523001 0.000100 -0.000100
v 0.523001 0.149900 -0.000100
v -0.000000 0.149900 -0.000100
v -0.000000 0.149900 -0.721591
v -0.000001 0.149900 -0.999900
v 0.150045 0.149900 -0.721503
v 0.524450 0.149900 -0.718512
v 0.335025 0.000100 -0.643568
v 0.335025 0.149900 -0.643568
v 0.524971 0.149900 -0.999912
v 0.337665 0.149900 -0.357621
v 0.524450 0.000100 -0.718512
v -0.000001 0.000100 -0.999900
v -0.000000 0.000100 -0.000100
v 0.524971 0.000100 -0.999912
v -0.000000 0.000000 -0.721591
v 0.000100 0.000100 -0.000000
v 0.149900 0.000100 -0.000000
v 0.000099 0.000100 -1.000000
v 0.149899 0.000100 -1.000000
v 0.674918 0.149900 -1.000000
v 0.525118 0.149900 -1.000000
v 0.674918 0.000100 -1.000000
v 0.674919 0.149900 -0.000000
v 0.523101 0.149900 -0.000000
v 0.523101 0.000100 -0.000000
v 0.000100 0.149900 -0.000000
v 0.149900 0.149900 -0.000000
v 0.000099 0.149900 -1.000000
v 0.149899 0.149900 -1.000000
v 0.674919 0.000100 -0.000000
v 0.525118 0.000100 -1.000000
vt 0.011326 0.009835
vt 0.011325 0.710229
vt 0.156745 0.710629
vt 0.156745 0.009835
vt 0.520441 0.707737
vt 0.520952 0.980399
vt 0.666411 0.980399
vt 0.666411 0.707336
vt 0.666411 0.009836
vt 0.519033 0.009836
vt 0.336410 0.634193
vt 0.339064 0.357027
vt 0.156783 0.980399
vt 0.011325 0.980399
vt 0.898321 0.802379
vt 0.898321 0.719577
vt 0.981122 0.719577
vt 0.981122 0.802379
vt 0.897302 0.224889
vt 0.897331 0.140973
vt 0.980133 0.141001
vt 0.980104 0.224918
vt 0.897137 0.397366
vt 0.897136 0.314565
vt 0.979938 0.314565
vt 0.979938 0.397366
vt 0.980104 0.057603
vt 0.980104 0.140404
vt 0.897302 0.140404
vt 0.897302 0.057603
vt 0.977874 0.424580
vt 0.977874 0.823382
vt 0.895073 0.823382
vt 0.895073 0.424580
vt 0.977874 0.270746
vt 0.895073 0.270746
vt 0.895283 0.537385
vt 0.895283 0.138638
vt 0.978084 0.138638
vt 0.978084 0.537385
vt 0.895178 0.241596
vt 0.895178 0.086115
vt 0.977979 0.086115
vt 0.977979 0.241596
vt 0.895178 0.638751
vt 0.977979 0.638751
vt 0.979999 0.554800
vt 0.979999 0.951900
vt 0.897197 0.951900
vt 0.897198 0.554800
vt 0.978293 0.384776
vt 0.978293 0.607979
vt 0.895492 0.607979
vt 0.895492 0.384776
vt 0.896789 0.781319
vt 0.896789 0.556733
vt 0.979590 0.556733
vt 0.979590 0.781319
vt 0.897441 0.547605
vt 0.897441 0.321309
vt 0.980242 0.321309
vt 0.980242 0.547605
vt 0.978327 0.278319
vt 0.978327 0.500220
vt 0.895526 0.500220
vt 0.895526 0.278319
vt 0.859516 0.912713
vt 0.853549 0.912713
vt 0.852680 0.911811
vt 0.859469 0.911934
vt 0.852707 0.951198
vt 0.858676 0.951198
vt 0.859545 0.952100
vt 0.852755 0.951977
vt 0.873086 0.911198
vt 0.859091 0.911198
vt 0.859211 0.909371
vt 0.875135 0.909625
vt 0.863161 0.921856
vt 0.872195 0.921856
vt 0.875135 0.923534
vt 0.863238 0.923035
vt 0.859576 0.953614
vt 0.853607 0.953614
vt 0.852737 0.952713
vt 0.859528 0.952835
vt 0.868252 0.934164
vt 0.874257 0.934164
vt 0.875135 0.935072
vt 0.868299 0.934949
vt 0.848581 0.946012
vt 0.854547 0.946012
vt 0.855417 0.946914
vt 0.848628 0.946792
vt 0.850829 0.966351
vt 0.844886 0.966410
vt 0.844491 0.965517
vt 0.850888 0.965517
vt 0.873082 0.959584
vt 0.859059 0.959584
vt 0.859179 0.957754
vt 0.875135 0.958009
vt 0.859576 0.915632
vt 0.851442 0.915632
vt 0.850256 0.914404
vt 0.859506 0.914571
vt 0.860129 0.911812
vt 0.873226 0.911811
vt 0.875135 0.913790
vt 0.860241 0.913521
vt 0.866378 0.941863
vt 0.875135 0.940725
vt 0.875135 0.941868
vt 0.866450 0.943007
vt 0.860219 0.917005
vt 0.873226 0.917005
vt 0.875135 0.918989
vt 0.860219 0.918703
vt 0.873108 0.967121
vt 0.851501 0.966466
vt 0.859204 0.965517
vt 0.875135 0.965517
vt 0.875135 0.945205
vt 0.863661 0.944848
vt 0.862924 0.943620
vt 0.872336 0.943620
vt 0.860438 0.919602
vt 0.873026 0.919602
vt 0.875135 0.920432
vt 0.867207 0.921242
vt 0.872337 0.946914
vt 0.856030 0.946601
vt 0.861827 0.945819
vt 0.875135 0.945819
vt 0.862008 0.924147
vt 0.875135 0.924498
vt 0.872382 0.925513
vt 0.861917 0.925513
vt 0.844519 0.899445
vt 0.850468 0.899387
vt 0.850857 0.900279
vt 0.844459 0.900279
vt 0.850835 0.932744
vt 0.845180 0.932846
vt 0.844456 0.931904
vt 0.850895 0.931904
vt 0.860189 0.914404
vt 0.873222 0.914404
vt 0.875135 0.916392
vt 0.860189 0.916105
vt 0.866426 0.930154
vt 0.875135 0.929021
vt 0.875135 0.930158
vt 0.866497 0.931291
vt 0.873107 0.900996
vt 0.851470 0.900340
vt 0.859175 0.899387
vt 0.875135 0.899387
vt 0.861303 0.925513
vt 0.853125 0.925513
vt 0.851933 0.924277
vt 0.861233 0.924445
vt 0.860159 0.950124
vt 0.873226 0.950124
vt 0.875135 0.952100
vt 0.860270 0.951830
vt 0.852048 0.922164
vt 0.862548 0.922164
vt 0.862451 0.923534
vt 0.851055 0.923415
vt 0.859727 0.920976
vt 0.849187 0.920976
vt 0.849298 0.919602
vt 0.859824 0.919602
vt 0.862310 0.945043
vt 0.852234 0.945043
vt 0.851388 0.943620
vt 0.862224 0.943728
vt 0.860220 0.947527
vt 0.873226 0.947527
vt 0.875135 0.949511
vt 0.860220 0.949225
vt 0.858446 0.957754
vt 0.858446 0.963721
vt 0.857544 0.964591
vt 0.857666 0.957801
vt 0.853901 0.957754
vt 0.853901 0.963721
vt 0.852999 0.964591
vt 0.853121 0.957801
vt 0.873607 0.903244
vt 0.861490 0.903657
vt 0.859441 0.901609
vt 0.875135 0.901609
vt 0.859607 0.948762
vt 0.851429 0.948762
vt 0.850237 0.947527
vt 0.859537 0.947695
vt 0.873086 0.957141
vt 0.859092 0.957141
vt 0.859212 0.955314
vt 0.875135 0.955568
vt 0.846940 0.957141
vt 0.846940 0.951176
vt 0.847841 0.950306
vt 0.847719 0.957094
vt 0.864666 0.930249
vt 0.855571 0.930558
vt 0.854034 0.929021
vt 0.865813 0.929021
vt 0.848454 0.964590
vt 0.848454 0.958624
vt 0.849356 0.957755
vt 0.849234 0.964543
vt 0.862698 0.933380
vt 0.852931 0.933380
vt 0.851508 0.931904
vt 0.862618 0.932105
vt 0.848290 0.924277
vt 0.848290 0.930243
vt 0.847389 0.931113
vt 0.847511 0.924324
vt 0.847865 0.935753
vt 0.847865 0.941719
vt 0.846964 0.942589
vt 0.847086 0.935800
vt 0.849969 0.957141
vt 0.849969 0.951174
vt 0.850871 0.950305
vt 0.850749 0.957094
vt 0.849969 0.908758
vt 0.849969 0.902792
vt 0.850871 0.901922
vt 0.850749 0.908711
vt 0.860969 0.963268
vt 0.873087 0.962855
vt 0.875135 0.964903
vt 0.859441 0.964903
vt 0.866379 0.927265
vt 0.875135 0.926126
vt 0.875135 0.927269
vt 0.866451 0.928408
vt 0.855181 0.938884
vt 0.864276 0.938574
vt 0.865812 0.940111
vt 0.854034 0.940111
vt 0.851508 0.935752
vt 0.861275 0.935752
vt 0.862698 0.937228
vt 0.851588 0.937028
vt 0.873984 0.933136
vt 0.864854 0.933447
vt 0.863312 0.931904
vt 0.875135 0.931904
vt 0.852386 0.901922
vt 0.852386 0.907888
vt 0.851484 0.908758
vt 0.851606 0.901969
vt 0.860189 0.952713
vt 0.873222 0.952713
vt 0.875135 0.954701
vt 0.860189 0.954414
vt 0.866426 0.938974
vt 0.875135 0.937842
vt 0.875135 0.938978
vt 0.866497 0.940111
vt 0.848478 0.942589
vt 0.848478 0.936622
vt 0.849380 0.935752
vt 0.849258 0.942542
vt 0.860999 0.904682
vt 0.873091 0.904270
vt 0.875135 0.906314
vt 0.859474 0.906314
vt 0.856931 0.957754
vt 0.856931 0.963721
vt 0.856029 0.964591
vt 0.856151 0.957801
vt 0.855167 0.926435
vt 0.864233 0.926126
vt 0.865766 0.927658
vt 0.854023 0.927658
vt 0.849356 0.901922
vt 0.849356 0.907888
vt 0.848454 0.908758
vt 0.848577 0.901969
vt 0.864463 0.935996
vt 0.873592 0.935685
vt 0.875135 0.937228
vt 0.863312 0.937228
vt 0.857544 0.908758
vt 0.857544 0.902791
vt 0.858446 0.901921
vt 0.858323 0.908711
vt 0.854514 0.964591
vt 0.854514 0.958624
vt 0.855416 0.957754
vt 0.855294 0.964544
vt 0.851320 0.924277
vt 0.851320 0.930244
vt 0.850418 0.931113
vt 0.850541 0.924324
vt 0.856029 0.908758
vt 0.856029 0.902791
vt 0.856931 0.901921
vt 0.856809 0.908711
vt 0.873082 0.908758
vt 0.859059 0.908758
vt 0.859179 0.906928
vt 0.875135 0.907182
vt 0.859605 0.918234
vt 0.851471 0.918234
vt 0.850286 0.917005
vt 0.859536 0.917172
vt 0.873610 0.961830
vt 0.861518 0.962242
vt 0.859474 0.960198
vt 0.875135 0.960198
vt 0.864622 0.942698
vt 0.855555 0.943007
vt 0.854023 0.941474
vt 0.865765 0.941474
vt 0.845813 0.934170
vt 0.851779 0.934170
vt 0.852649 0.935072
vt 0.845860 0.934950
vt 0.852066 0.912713
vt 0.846100 0.912713
vt 0.845230 0.911811
vt 0.852019 0.911934
vt 0.844192 0.910297
vt 0.850159 0.910297
vt 0.851028 0.911198
vt 0.844239 0.911076
vt 0.852999 0.908758
vt 0.852999 0.902791
vt 0.853901 0.901921
vt 0.853778 0.908711
vt 0.867638 0.935072
vt 0.861632 0.935072
vt 0.860757 0.934164
vt 0.867592 0.934287
vt 0.848454 0.957140
vt 0.848454 0.951174
vt 0.849356 0.950305
vt 0.849234 0.957093
vt 0.859545 0.950585
vt 0.853579 0.950585
vt 0.852709 0.949683
vt 0.859498 0.949805
vt 0.851641 0.910297
vt 0.857608 0.910297
vt 0.858478 0.911198
vt 0.851688 0.911076
vt 0.848903 0.931113
vt 0.848903 0.925147
vt 0.849805 0.924277
vt 0.849683 0.931067
vt 0.852386 0.957754
vt 0.852386 0.963721
vt 0.851484 0.964590
vt 0.851606 0.957801
vt 0.849969 0.964590
vt 0.849969 0.958624
vt 0.850871 0.957754
vt 0.850749 0.964543
vt 0.850895 0.935752
vt 0.850895 0.941719
vt 0.849993 0.942589
vt 0.850115 0.935799
vt 0.855416 0.901921
vt 0.855416 0.907888
vt 0.854514 0.908758
vt 0.854636 0.901968
vt 0.848573 0.914140
vt 0.848573 0.920106
vt 0.847672 0.920976
vt 0.847794 0.914187
vt 0.858479 0.956216
vt 0.852513 0.956216
vt 0.851643 0.955314
vt 0.858432 0.955436
vt 0.853262 0.934164
vt 0.859268 0.934164
vt 0.860143 0.935072
vt 0.853308 0.934949
vn 0.000000 -1.000000 0.000000
vn 0.000000 0.000000 -0.999969
vn 0.000000 0.000000 -1.000000
vn 0.000000 0.000000 1.000000
vn 0.000000 0.000000 0.999969
vn -1.000000 0.000000 0.000000
vn 1.000000 0.000000 0.000000
vn 0.999969 0.000000 0.000000
vn -0.999969 0.000000 -0.001923
vn -0.882473 0.000031 -0.470290
vn -0.882443 0.000031 -0.470382
vn -0.882443 -0.000031 -0.470382
vn -0.882473 -0.000031 -0.470290
vn 0.888241 0.000061 0.459334
vn 0.888180 0.000061 0.459426
vn 0.888180 -0.000061 0.459426
vn 0.888241 -0.000061 0.459334
vn -0.888791 0.000031 0.458266
vn -0.888852 0.000031 0.458174
vn -0.888852 -0.000031 0.458174
vn -0.888791 -0.000031 0.458266
vn 0.887570 -0.000031 -0.460616
vn 0.887570 -0.000031 -0.460646
vn 0.887570 0.000031 -0.460646
vn 0.887570 0.000031 -0.460616
vn 0.000000 1.000000 0.000000
vn 0.577349 -0.577349 0.577349
vn -0.577349 -0.577349 0.577349
vn -0.577349 -0.577349 -0.577349
vn 0.412732 -0.606769 -0.679281
vn 0.707083 -0.707083 0.000000
vn -0.000549 -0.551592 0.834071
vn 0.029817 -0.991943 0.122959
vn 0.577349 0.577349 -0.577349
vn -0.408734 0.607562 -0.680990
vn -0.577960 0.577197 0.576861
vn 0.577349 0.577349 0.577349
vn -0.577349 0.577349 0.577349
vn 0.412732 0.606769 -0.679281
vn -0.577349 0.577349 -0.577349
vn -0.707083 0.707083 0.000000
vn 0.029817 0.991943 0.122959
vn 0.707083 0.707083 0.000000
vn -0.029969 0.991974 0.122745
vn 0.001434 0.964141 -0.265297
vn -0.000549 0.551592 0.834071
vn -0.408734 -0.607562 -0.680990
vn 0.577349 -0.577349 -0.577349
vn -0.577960 -0.577197 0.576861
vn -0.707083 -0.707083 0.000000
vn -0.029969 -0.991974 0.122745
vn 0.001434 -0.964141 -0.265297
usemtl ABCmat
s 1
f 29/1/1 10/2/1 35/3/1 30/4/1
f 8/5/1 1/6/1 52/7/1 34/8/1
f 34/8/1 33/9/1 53/10/1 8/5/1
f 12/11/1 36/12/1 35/3/1 32/13/1
f 1/6/1 8/5/1 36/12/1 12/11/1
f 10/2/1 31/14/1 32/13/1 35/3/1
f 99/15/2 108/16/3 98/17/3 97/18/3
f 102/19/4 107/20/5 100/21/4 101/22/4
f 93/23/4 94/24/4 104/25/4 103/26/4
f 96/27/3 95/28/3 105/29/3 106/30/3
f 54/31/6 90/32/6 79/33/6 80/34/6
f 89/35/6 54/31/6 80/34/6 81/36/6
f 74/37/7 61/38/8 62/39/7 63/40/7
f 58/41/7 59/42/7 60/43/7 64/44/7
f 57/45/7 58/41/7 64/44/7 65/46/7
f 88/47/9 77/48/9 78/49/9 83/50/9
f 91/51/10 84/52/11 85/53/12 86/54/13
f 70/55/14 72/56/15 69/57/16 68/58/17
f 75/59/18 76/60/19 87/61/20 82/62/21
f 66/63/22 73/64/23 71/65/24 67/66/25
f 46/3/26 50/12/26 49/11/26 44/13/26
f 50/12/26 48/5/26 38/6/26 49/11/26
f 40/10/26 39/9/26 47/8/26 48/5/26
f 48/5/26 47/8/26 37/7/26 38/6/26
f 44/13/26 43/14/26 45/2/26 46/3/26
f 46/3/26 45/2/26 41/1/26 42/4/26
f 29/67/1 30/68/1 4/69/27 3/70/28
f 32/71/1 31/72/1 5/73/29 6/74/30
f 33/75/1 34/76/1 7/77/31 2/78/27
f 35/79/1 36/80/1 11/81/32 9/82/33
f 38/83/26 37/84/26 15/85/34 16/86/35
f 39/87/26 40/88/26 18/89/36 17/90/37
f 42/91/26 41/92/26 20/93/38 21/94/37
f 43/95/26 44/96/26 23/97/39 22/98/40
f 41/99/26 45/100/26 25/101/41 20/102/38
f 45/103/26 43/104/26 22/105/40 25/106/41
f 46/107/26 42/108/26 21/109/37 26/110/42
f 37/111/26 47/112/26 27/113/43 15/114/34
f 47/115/26 39/116/26 17/117/37 27/118/43
f 40/119/26 48/120/26 28/121/44 18/122/36
f 49/123/26 38/124/26 16/125/35 19/126/45
f 48/127/26 50/128/26 24/129/46 28/130/44
f 50/131/26 46/132/26 26/133/42 24/134/46
f 44/135/26 49/136/26 19/137/45 23/138/39
f 52/139/1 1/140/1 51/141/47 14/142/48
f 53/143/1 33/144/1 2/145/27 13/146/49
f 10/147/1 29/148/1 3/149/28 92/150/50
f 31/151/1 10/152/1 92/153/50 5/154/29
f 30/155/1 35/156/1 9/157/33 4/158/27
f 34/159/1 52/160/1 14/161/48 7/162/31
f 8/163/1 53/164/1 13/165/49 55/166/51
f 1/167/1 12/168/1 56/169/52 51/170/47
f 36/171/1 8/172/1 55/173/51 11/174/32
f 12/175/1 32/176/1 6/177/30 56/178/52
f 58/179/7 57/180/7 2/181/27 7/182/31
f 60/183/7 59/184/7 14/185/48 15/186/34
f 62/187/7 61/188/8 9/189/33 26/190/42
f 63/191/7 62/192/7 26/193/42 21/194/37
f 64/195/7 60/196/7 15/197/34 27/198/43
f 65/199/7 64/200/7 27/201/43 17/202/37
f 66/203/22 67/204/25 19/205/45 56/206/52
f 68/207/17 69/208/16 28/209/44 24/210/46
f 70/211/14 68/212/17 24/213/46 11/214/32
f 67/215/25 71/216/24 23/217/39 19/218/45
f 69/219/16 72/220/15 55/221/51 28/222/44
f 71/223/24 73/224/23 6/225/30 23/226/39
f 74/227/7 63/228/7 21/229/37 4/230/27
f 57/231/7 65/232/7 17/233/37 2/234/27
f 61/235/8 74/236/7 4/237/27 9/238/33
f 59/239/7 58/240/7 7/241/31 14/242/48
f 72/243/15 70/244/14 11/245/32 55/246/51
f 73/247/23 66/248/22 56/249/52 6/250/30
f 76/251/19 75/252/18 9/253/33 11/254/32
f 78/255/9 77/256/9 13/257/49 18/258/36
f 80/259/6 79/260/6 20/261/38 25/262/41
f 81/263/6 80/264/6 25/265/41 22/266/40
f 75/267/18 82/268/21 26/269/42 9/270/33
f 83/271/9 78/272/9 18/273/36 28/274/44
f 85/275/12 84/276/11 56/277/52 19/278/45
f 86/279/13 85/280/12 19/281/45 16/282/35
f 87/283/20 76/284/19 11/285/32 24/286/46
f 82/287/21 87/288/20 24/289/46 26/290/42
f 88/291/9 83/292/9 28/293/44 55/294/51
f 89/295/6 81/296/6 22/297/40 5/298/29
f 79/299/6 90/300/6 3/301/28 20/302/38
f 91/303/10 86/304/13 16/305/35 51/306/47
f 90/307/6 54/308/6 92/309/50 3/310/28
f 54/311/6 89/312/6 5/313/29 92/314/50
f 77/315/9 88/316/9 55/317/51 13/318/49
f 84/319/11 91/320/10 51/321/47 56/322/52
f 94/323/4 93/324/4 3/325/28 4/326/27
f 95/327/3 96/328/3 6/329/30 5/330/29
f 97/331/3 98/332/3 16/333/35 15/334/34
f 99/335/2 97/336/3 15/337/34 14/338/48
f 101/339/4 100/340/4 17/341/37 18/342/36
f 102/343/4 101/344/4 18/345/36 13/346/49
f 103/347/4 104/348/4 21/349/37 20/350/38
f 106/351/3 105/352/3 22/353/40 23/354/39
f 96/355/3 106/356/3 23/357/39 6/358/30
f 105/359/3 95/360/3 5/361/29 22/362/40
f 93/363/4 103/364/4 20/365/38 3/366/28
f 104/367/4 94/368/4 4/369/27 21/370/37
f 100/371/4 107/372/5 2/373/27 17/374/37
f 98/375/3 108/376/3 51/377/47 16/378/35
f 108/379/3 99/380/2 14/381/48 51/382/47
f 107/383/5 102/384/4 13/385/49 2/386/27
