# Blender v2.65 (sub 0) OBJ File: 'letters.blend'
# www.blender.org
mtllib LetterF.mtl
o LetterF
v 0.149999 0.000000 -0.849697
v 0.150000 0.000000 -0.575000
v -0.000000 0.000100 -0.425000
v 0.450000 0.000000 -0.575000
v 0.450000 0.000000 -0.425000
v 0.150000 0.000000 -0.425000
v -0.000000 0.000000 -0.575000
v -0.000000 0.000000 0.000000
v 0.150000 0.000000 -0.000000
v -0.000001 0.000000 -0.849698
v -0.000001 0.000000 -1.000000
v 0.149999 0.000000 -0.999999
v 0.649999 0.000000 -1.000000
v 0.649999 0.000000 -0.850000
v 0.649999 0.150000 -0.850000
v 0.649999 0.150000 -1.000000
v 0.149999 0.149900 -0.999999
v -0.000001 0.150000 -1.000000
v 0.149999 0.150000 -0.849697
v -0.000001 0.150000 -0.849698
v 0.150000 0.150000 -0.000000
v -0.000000 0.150000 0.000000
v 0.150000 0.150000 -0.575000
v -0.000000 0.150000 -0.575000
v 0.150000 0.150000 -0.425000
v -0.000000 0.150000 -0.425000
v 0.450000 0.150000 -0.425000
v 0.450000 0.150000 -0.575000
v 0.149899 0.000000 -0.849797
v 0.149900 0.000000 -0.574900
v 0.449900 0.000000 -0.425100
v 0.149900 0.000000 -0.425100
v 0.449900 0.000000 -0.574900
v 0.149900 0.000000 -0.000100
v 0.000100 0.000000 -0.575000
v 0.000099 0.000000 -0.849698
v 0.149999 0.000000 -0.999899
v 0.649899 0.000000 -0.999900
v 0.000100 0.000000 -0.000100
v 0.000099 0.000000 -0.999900
v 0.649899 0.000000 -0.850100
v 0.649899 0.150000 -0.850100
v 0.649899 0.150000 -0.999900
v 0.149999 0.150000 -0.999899
v 0.000099 0.150000 -0.999900
v 0.000099 0.150000 -0.849698
v 0.149900 0.150000 -0.000100
v 0.000100 0.150000 -0.000100
v 0.149899 0.150000 -0.849797
v 0.149900 0.150000 -0.574900
v 0.000100 0.150000 -0.575000
v 0.149900 0.150000 -0.425100
v 0.000100 0.150000 -0.425000
v 0.449900 0.150000 -0.425100
v 0.449900 0.150000 -0.574900
v 0.000100 0.000000 -0.425000
v 0.149999 0.000100 -0.849597
v 0.150000 0.000100 -0.575100
v 0.450000 0.000100 -0.574900
v 0.450000 0.000100 -0.425100
v 0.150000 0.000100 -0.424900
v 0.150000 0.000100 -0.000100
v -0.000000 0.000100 -0.575000
v -0.000001 0.000100 -0.849698
v -0.000001 0.000100 -0.999900
v 0.649999 0.000100 -0.999900
v 0.649999 0.000100 -0.850100
v 0.649999 0.149900 -0.850100
v 0.649999 0.149900 -0.999900
v -0.000001 0.149900 -0.999900
v -0.000001 0.149900 -0.849698
v -0.000000 0.000100 -0.000100
v -0.000000 0.149900 -0.000100
v 0.150000 0.149900 -0.000100
v 0.149999 0.149900 -0.849597
v 0.150000 0.149900 -0.575100
v -0.000000 0.149900 -0.575000
v 0.150000 0.149900 -0.424900
v -0.000000 0.149900 -0.425000
v 0.450000 0.149900 -0.425100
v 0.450000 0.149900 -0.574900
v -0.000000 0.000000 -0.425000
v 0.449900 0.000100 -0.425000
v 0.150100 0.000100 -0.425000
v 0.149999 0.000100 -0.999999
v 0.649899 0.000100 -1.000000
v 0.000100 0.000100 -0.000000
v 0.149900 0.000100 -0.000000
v 0.000099 0.000100 -1.000000
v 0.649899 0.000100 -0.850000
v 0.649899 0.149900 -0.850000
v 0.649899 0.149900 -1.000000
v 0.149999 0.150000 -0.999999
v 0.000099 0.149900 -1.000000
v 0.000100 0.149900 -0.000000
v 0.149900 0.149900 -0.000000
v 0.150099 0.149900 -0.849697
v 0.150100 0.149900 -0.425000
v 0.449900 0.149900 -0.425000
v 0.449900 0.000100 -0.575000
v 0.449900 0.149900 -0.575000
v 0.150100 0.149900 -0.575000
v 0.150100 0.000100 -0.575000
v 0.150099 0.000100 -0.849697
vt 0.159807 0.838202
vt 0.014972 0.838106
vt 0.014972 0.983330
vt 0.159903 0.983329
vt 0.643233 0.838496
vt 0.643233 0.983330
vt 0.159807 0.572417
vt 0.014972 0.572514
vt 0.159807 0.016670
vt 0.014973 0.016670
vt 0.014972 0.427486
vt 0.159807 0.427582
vt 0.449863 0.572417
vt 0.449863 0.427583
vt 0.894498 0.350891
vt 0.985211 0.350891
vt 0.985211 0.441604
vt 0.894498 0.441604
vt 0.986015 0.809231
vt 0.895302 0.809231
vt 0.895302 0.718458
vt 0.986015 0.718458
vt 0.987472 0.465177
vt 0.896759 0.465177
vt 0.896759 0.374220
vt 0.987472 0.374220
vt 0.896342 0.223504
vt 0.987055 0.223504
vt 0.987055 0.314216
vt 0.896342 0.314216
vt 0.895302 0.415738
vt 0.986015 0.415738
vt 0.984114 0.340484
vt 0.893401 0.340484
vt 0.893401 0.037825
vt 0.984114 0.037825
vt 0.895851 0.099133
vt 0.986564 0.099164
vt 0.986506 0.265389
vt 0.895793 0.265357
vt 0.987472 0.631523
vt 0.896759 0.631523
vt 0.891996 0.163320
vt 0.982709 0.163320
vt 0.982710 0.420562
vt 0.891997 0.420562
vt 0.987472 0.722357
vt 0.896759 0.722357
vt 0.987472 0.979659
vt 0.896759 0.979659
vt 0.894786 0.321159
vt 0.985499 0.321159
vt 0.985499 0.411872
vt 0.894786 0.411872
vt 0.894498 0.442138
vt 0.985211 0.442138
vt 0.985211 0.623685
vt 0.894498 0.623685
vt 0.986048 0.232186
vt 0.895335 0.232186
vt 0.895335 0.050639
vt 0.986048 0.050639
vt 0.847165 0.871971
vt 0.847165 0.880174
vt 0.845926 0.881370
vt 0.846094 0.872038
vt 0.868887 0.881952
vt 0.868887 0.872771
vt 0.870085 0.871573
vt 0.870085 0.880754
vt 0.858984 0.854481
vt 0.858984 0.848423
vt 0.859899 0.847540
vt 0.859775 0.854433
vt 0.856512 0.893569
vt 0.856512 0.882641
vt 0.857939 0.882735
vt 0.857740 0.895168
vt 0.867733 0.862788
vt 0.867730 0.871573
vt 0.866583 0.871648
vt 0.866586 0.862863
vt 0.872167 0.883315
vt 0.872167 0.895168
vt 0.870620 0.895067
vt 0.870835 0.881580
vt 0.856644 0.861955
vt 0.856644 0.855897
vt 0.857559 0.855014
vt 0.857435 0.861907
vt 0.869242 0.864542
vt 0.870085 0.871038
vt 0.869237 0.871038
vt 0.868393 0.864593
vt 0.863533 0.867675
vt 0.863533 0.873738
vt 0.862618 0.874620
vt 0.862742 0.867726
vt 0.868393 0.864008
vt 0.868393 0.857950
vt 0.869309 0.857067
vt 0.869185 0.863961
vt 0.874392 0.856490
vt 0.874392 0.862549
vt 0.873477 0.863431
vt 0.873600 0.856537
vt 0.873544 0.870456
vt 0.872702 0.863966
vt 0.873549 0.863966
vt 0.874392 0.870405
vt 0.860656 0.895168
vt 0.860656 0.889100
vt 0.861572 0.888216
vt 0.861448 0.895116
vt 0.871628 0.854779
vt 0.871628 0.860837
vt 0.870712 0.861720
vt 0.870836 0.854827
vt 0.852167 0.895168
vt 0.852167 0.884152
vt 0.853847 0.882535
vt 0.853605 0.895168
vt 0.849551 0.881681
vt 0.849551 0.895168
vt 0.848191 0.893455
vt 0.848191 0.879968
vt 0.851325 0.871648
vt 0.851157 0.880979
vt 0.850086 0.881047
vt 0.850086 0.872843
vt 0.870712 0.871115
vt 0.870712 0.862330
vt 0.871859 0.862255
vt 0.871859 0.871040
vt 0.861861 0.869754
vt 0.861860 0.880682
vt 0.860434 0.882107
vt 0.860434 0.871180
vt 0.856644 0.854479
vt 0.856644 0.847988
vt 0.857491 0.847932
vt 0.857491 0.854424
vt 0.858473 0.893569
vt 0.858473 0.882642
vt 0.859900 0.882736
vt 0.859701 0.895168
vt 0.847072 0.847625
vt 0.847072 0.853683
vt 0.846157 0.854566
vt 0.846281 0.847673
vt 0.859900 0.862572
vt 0.859900 0.871754
vt 0.858702 0.871672
vt 0.858702 0.862491
vt 0.872702 0.881370
vt 0.872702 0.872188
vt 0.873900 0.870990
vt 0.873900 0.880172
vt 0.870085 0.882487
vt 0.869858 0.895073
vt 0.868413 0.895168
vt 0.868413 0.884099
vt 0.869309 0.842509
vt 0.869309 0.849001
vt 0.868461 0.849056
vt 0.868461 0.842565
vt 0.855931 0.870759
vt 0.855931 0.880915
vt 0.854382 0.882405
vt 0.854605 0.870759
vt 0.857842 0.862572
vt 0.857842 0.871753
vt 0.856644 0.871671
vt 0.856644 0.862490
vt 0.848191 0.879433
vt 0.848360 0.870104
vt 0.849431 0.870038
vt 0.849431 0.878238
vt 0.855999 0.847625
vt 0.855999 0.853683
vt 0.855083 0.854566
vt 0.855207 0.847672
vt 0.865342 0.884130
vt 0.865664 0.893572
vt 0.864068 0.895168
vt 0.864068 0.882940
vt 0.845926 0.871436
vt 0.845926 0.862651
vt 0.847072 0.862576
vt 0.847072 0.871361
vt 0.862617 0.882107
vt 0.862617 0.876039
vt 0.863533 0.875155
vt 0.863409 0.882056
vt 0.859899 0.855015
vt 0.859900 0.861073
vt 0.858984 0.861956
vt 0.859108 0.855062
vt 0.860791 0.858438
vt 0.866850 0.858438
vt 0.867733 0.859353
vt 0.860839 0.859229
vt 0.855083 0.862041
vt 0.855083 0.855984
vt 0.855999 0.855100
vt 0.855875 0.861994
vt 0.867733 0.860803
vt 0.861674 0.860803
vt 0.860791 0.859888
vt 0.867685 0.860012
vt 0.860791 0.861338
vt 0.866850 0.861338
vt 0.867733 0.862253
vt 0.860839 0.862129
vt 0.850934 0.864617
vt 0.851777 0.871113
vt 0.850930 0.871113
vt 0.850086 0.864667
vt 0.867733 0.853553
vt 0.861675 0.853553
vt 0.860792 0.852638
vt 0.867685 0.852762
vt 0.847607 0.853876
vt 0.853665 0.853876
vt 0.854548 0.854791
vt 0.847655 0.854667
vt 0.870620 0.881046
vt 0.870620 0.872845
vt 0.871859 0.871649
vt 0.871691 0.880978
vt 0.853462 0.862787
vt 0.853462 0.871572
vt 0.852315 0.871647
vt 0.852315 0.862862
vt 0.854703 0.893978
vt 0.854382 0.884535
vt 0.855978 0.882940
vt 0.855978 0.895168
vt 0.867733 0.852103
vt 0.861675 0.852103
vt 0.860792 0.851188
vt 0.867685 0.851312
vt 0.849431 0.862956
vt 0.849431 0.869448
vt 0.848583 0.869503
vt 0.848583 0.863012
vt 0.865617 0.870759
vt 0.865617 0.880915
vt 0.864068 0.882405
vt 0.864291 0.870759
vt 0.860792 0.848288
vt 0.866850 0.848288
vt 0.867733 0.849203
vt 0.860840 0.849079
vt 0.873477 0.855955
vt 0.873477 0.849898
vt 0.874392 0.849015
vt 0.874268 0.855908
vt 0.854548 0.851891
vt 0.848491 0.851891
vt 0.847608 0.850976
vt 0.854500 0.851100
vt 0.847608 0.848076
vt 0.853665 0.848076
vt 0.854548 0.848991
vt 0.847655 0.848867
vt 0.847607 0.858226
vt 0.854501 0.858350
vt 0.854549 0.859141
vt 0.848490 0.859141
vt 0.870780 0.854244
vt 0.870780 0.847753
vt 0.871628 0.847697
vt 0.871628 0.854189
vt 0.862107 0.893569
vt 0.862107 0.882642
vt 0.863533 0.882736
vt 0.863335 0.895168
vt 0.857939 0.872288
vt 0.857939 0.880858
vt 0.856644 0.882107
vt 0.856820 0.872358
vt 0.866198 0.895168
vt 0.866198 0.884153
vt 0.867878 0.882536
vt 0.867636 0.895168
vt 0.869309 0.849591
vt 0.869309 0.855649
vt 0.868393 0.856532
vt 0.868517 0.849639
vt 0.864910 0.870225
vt 0.864068 0.863735
vt 0.864915 0.863735
vt 0.865758 0.870174
vt 0.854549 0.862041
vt 0.848490 0.862041
vt 0.847607 0.861126
vt 0.854501 0.861250
vt 0.847607 0.859676
vt 0.853666 0.859676
vt 0.854549 0.860591
vt 0.847655 0.860467
vt 0.855297 0.863279
vt 0.855297 0.869342
vt 0.854382 0.870225
vt 0.854506 0.863331
vt 0.854548 0.853341
vt 0.848490 0.853341
vt 0.847607 0.852426
vt 0.854500 0.852550
vt 0.860792 0.854088
vt 0.866850 0.854088
vt 0.867733 0.855003
vt 0.860840 0.854879
vt 0.846157 0.862041
vt 0.846157 0.855983
vt 0.847072 0.855100
vt 0.846948 0.861994
vt 0.867733 0.856453
vt 0.861675 0.856453
vt 0.860792 0.855538
vt 0.867685 0.855662
vt 0.851633 0.883316
vt 0.851633 0.895168
vt 0.850086 0.895067
vt 0.850301 0.881581
vt 0.846274 0.893877
vt 0.845926 0.883636
vt 0.847657 0.881904
vt 0.847657 0.895168
vt 0.847607 0.855326
vt 0.853665 0.855326
vt 0.854548 0.856241
vt 0.847655 0.856117
vt 0.867733 0.850653
vt 0.861675 0.850653
vt 0.860792 0.849738
vt 0.867685 0.849862
vt 0.847608 0.849526
vt 0.853665 0.849526
vt 0.854548 0.850441
vt 0.847655 0.850317
vt 0.866583 0.882002
vt 0.866583 0.873431
vt 0.867878 0.872182
vt 0.867702 0.881931
vt 0.859900 0.872288
vt 0.859900 0.880858
vt 0.858604 0.882107
vt 0.858781 0.872359
vt 0.854548 0.857691
vt 0.848490 0.857691
vt 0.847607 0.856776
vt 0.854500 0.856900
vt 0.867733 0.857903
vt 0.860840 0.857779
vt 0.860792 0.856988
vt 0.866850 0.856988
vt 0.872702 0.895168
vt 0.872702 0.881905
vt 0.874084 0.883196
vt 0.874432 0.893437
vt 0.852167 0.882000
vt 0.852167 0.873430
vt 0.853462 0.872181
vt 0.853286 0.881930
vn 0.000000 -1.000000 0.000000
vn 0.000000 -0.999969 0.000000
vn 1.000000 0.000000 0.000000
vn 0.000000 0.000000 -1.000000
vn -1.000000 0.000000 0.000000
vn 0.000000 0.000000 1.000000
vn 0.000580 0.000000 0.999969
vn 0.999969 0.000000 0.000000
vn 0.000000 1.000000 0.000000
vn 0.301706 -0.904447 0.301523
vn 0.301492 -0.904508 -0.301492
vn 0.577349 -0.577349 0.577349
vn 0.301492 -0.904508 0.301492
vn 0.577349 -0.577349 -0.577349
vn -0.707083 -0.707083 0.000000
vn 0.000000 -0.707083 -0.707083
vn -0.577349 -0.577349 0.577349
vn -0.577349 -0.577349 -0.577349
vn 0.577502 -0.577380 0.577136
vn 0.577502 0.577380 0.577136
vn 0.577349 0.577349 -0.577349
vn 0.000000 0.707083 -0.707083
vn -0.577349 0.577349 -0.577349
vn -0.707083 0.707083 0.000000
vn -0.577349 0.577349 0.577349
vn 0.577349 0.577349 0.577349
vn 0.301706 0.904447 0.301523
vn 0.301492 0.904508 -0.301492
vn 0.301492 0.904508 0.301492
usemtl ABCmat
s 1
f 29/1/1 36/2/1 40/3/1 37/4/2
f 41/5/1 29/1/1 37/4/2 38/6/1
f 36/2/1 29/1/1 30/7/1 35/8/1
f 34/9/1 39/10/1 56/11/1 32/12/1
f 32/12/1 56/11/1 35/8/1 30/7/1
f 30/7/1 33/13/1 31/14/1 32/12/1
f 66/15/3 69/16/3 68/17/3 67/18/3
f 89/19/4 94/20/4 17/21/4 85/22/4
f 64/23/5 71/24/5 70/25/5 65/26/5
f 88/27/6 96/28/6 95/29/6 87/30/6
f 85/22/4 17/21/4 92/31/4 86/32/4
f 97/33/7 104/34/7 90/35/7 91/36/7
f 57/37/3 75/38/3 76/39/3 58/40/3
f 63/41/5 77/42/5 71/24/5 64/23/5
f 61/43/3 78/44/3 74/45/8 62/46/3
f 3/47/5 79/48/5 77/42/5 63/41/5
f 72/49/5 73/50/5 79/48/5 3/47/5
f 59/51/3 81/52/3 80/53/3 60/54/3
f 83/55/6 99/56/6 98/57/6 84/58/6
f 103/59/4 102/60/4 101/61/4 100/62/4
f 45/3/9 46/2/9 49/1/9 44/4/9
f 44/4/9 49/1/9 42/5/9 43/6/9
f 46/2/9 51/8/9 50/7/9 49/1/9
f 53/11/9 48/10/9 47/9/9 52/12/9
f 51/8/9 53/11/9 52/12/9 50/7/9
f 54/14/9 55/13/9 50/7/9 52/12/9
f 1/63/10 2/64/11 30/65/1 29/66/1
f 32/67/1 31/68/1 5/69/12 6/70/13
f 31/71/1 33/72/1 4/73/14 5/74/12
f 34/75/1 32/76/1 6/77/13 9/78/12
f 36/79/1 35/80/1 7/81/15 10/82/15
f 38/83/1 37/84/2 12/85/16 13/86/14
f 39/87/1 34/88/1 9/89/12 8/90/17
f 40/91/1 36/92/1 10/93/15 11/94/18
f 37/95/2 40/96/1 11/97/18 12/98/16
f 41/99/1 38/100/1 13/101/14 14/102/19
f 43/103/9 42/104/9 15/105/20 16/106/21
f 45/107/9 44/108/9 93/109/22 18/110/23
f 46/111/9 45/112/9 18/113/23 20/114/24
f 47/115/9 48/116/9 22/117/25 21/118/26
f 44/119/9 43/120/9 16/121/21 93/122/22
f 42/123/9 49/124/9 19/125/27 15/126/20
f 49/127/9 50/128/9 23/129/28 19/130/27
f 51/131/9 46/132/9 20/133/24 24/134/24
f 52/135/9 47/136/9 21/137/26 25/138/29
f 53/139/9 51/140/9 24/141/24 26/142/24
f 48/143/9 53/144/9 26/145/24 22/146/25
f 55/147/9 54/148/9 27/149/26 28/150/21
f 54/151/9 52/152/9 25/153/29 27/154/26
f 50/155/9 55/156/9 28/157/21 23/158/28
f 14/159/19 1/160/10 29/161/1 41/162/1
f 35/163/1 56/164/1 82/165/15 7/166/15
f 56/167/1 39/168/1 8/169/17 82/170/15
f 33/171/1 30/172/1 2/173/11 4/174/14
f 2/175/11 1/176/10 57/177/3 58/178/3
f 59/179/3 60/180/3 5/181/12 4/182/14
f 61/183/3 62/184/3 9/185/12 6/186/13
f 63/187/5 64/188/5 10/189/15 7/190/15
f 64/191/5 65/192/5 11/193/18 10/194/15
f 66/195/3 67/196/3 14/197/19 13/198/14
f 67/199/3 68/200/3 15/201/20 14/202/19
f 68/203/3 69/204/3 16/205/21 15/206/20
f 69/207/3 66/208/3 13/209/14 16/210/21
f 65/211/5 70/212/5 18/213/23 11/214/18
f 70/215/5 71/216/5 20/217/24 18/218/23
f 73/219/5 72/220/5 8/221/17 22/222/25
f 62/223/3 74/224/8 21/225/26 9/226/12
f 76/227/3 75/228/3 19/229/27 23/230/28
f 71/231/5 77/232/5 24/233/24 20/234/24
f 74/235/8 78/236/3 25/237/29 21/238/26
f 78/239/3 61/240/3 6/241/13 25/242/29
f 77/243/5 79/244/5 26/245/24 24/246/24
f 79/247/5 73/248/5 22/249/25 26/250/24
f 60/251/3 80/252/3 27/253/26 5/254/12
f 80/255/3 81/256/3 28/257/21 27/258/26
f 81/259/3 59/260/3 4/261/14 28/262/21
f 58/263/3 76/264/3 23/265/28 2/266/11
f 1/267/10 19/268/27 75/269/3 57/270/3
f 3/271/5 63/272/5 7/273/15 82/274/15
f 72/275/5 3/276/5 82/277/15 8/278/17
f 83/279/6 84/280/6 6/281/13 5/282/12
f 85/283/4 86/284/4 13/285/14 12/286/16
f 88/287/6 87/288/6 8/289/17 9/290/12
f 89/291/4 85/292/4 12/293/16 11/294/18
f 91/295/7 90/296/7 14/297/19 15/298/20
f 86/299/4 92/300/4 16/301/21 13/302/14
f 17/303/4 94/304/4 18/305/23 93/306/22
f 94/307/4 89/308/4 11/309/18 18/310/23
f 87/311/6 95/312/6 22/313/25 8/314/17
f 95/315/6 96/316/6 21/317/26 22/318/25
f 96/319/6 88/320/6 9/321/12 21/322/26
f 92/323/4 17/324/4 93/325/22 16/326/21
f 97/327/7 91/328/7 15/329/20 19/330/27
f 84/331/6 98/332/6 25/333/29 6/334/13
f 99/335/6 83/336/6 5/337/12 27/338/26
f 100/339/4 101/340/4 28/341/21 4/342/14
f 98/343/6 99/344/6 27/345/26 25/346/29
f 101/347/4 102/348/4 23/349/28 28/350/21
f 102/351/4 103/352/4 2/353/11 23/354/28
f 19/355/27 1/356/10 104/357/7 97/358/7
f 1/359/10 14/360/19 90/361/7 104/362/7
f 103/363/4 100/364/4 4/365/14 2/366/11
