# Blender v2.65 (sub 0) OBJ File: 'letters.blend'
# www.blender.org
mtllib MarkSlash.mtl
o MarkSlash
v 0.150000 -0.000000 -0.000000
v 0.649001 0.000000 -1.000000
v -0.000000 0.000000 0.000000
v 0.499001 0.000000 -1.000000
v 0.499001 0.150003 -1.000000
v -0.000000 0.150000 0.000000
v 0.649001 0.150003 -1.000000
v 0.150000 0.150000 -0.000000
v 0.149601 -0.000000 -0.000729
v 0.001708 -0.000000 -0.000729
v 0.648136 0.000000 -0.999613
v 0.499520 -0.000000 -0.999613
v 0.648136 0.150003 -0.999613
v 0.149601 0.150000 -0.000729
v 0.499520 0.150003 -0.999613
v 0.001708 0.150000 -0.000729
v 0.000040 0.000979 -0.000283
v 0.498908 0.000979 -0.999916
v 0.150108 0.000979 -0.000133
v 0.648956 0.000979 -0.999844
v 0.648956 0.149024 -0.999844
v 0.150108 0.149021 -0.000133
v 0.000040 0.149021 -0.000283
v 0.498908 0.149024 -0.999916
v 0.149633 0.000745 -0.000000
v 0.000746 0.000746 -0.000000
v 0.648302 0.000699 -1.000000
v 0.499175 0.000699 -1.000000
v 0.648302 0.149304 -1.000000
v 0.149633 0.149254 -0.000000
v 0.000746 0.149254 -0.000000
v 0.499175 0.149304 -1.000000
vt 0.155395 0.008877
vt 0.010872 0.008877
vt 0.497341 0.985001
vt 0.642570 0.985001
vt 0.897220 0.737192
vt 0.897220 0.105982
vt 0.980860 0.105982
vt 0.980859 0.737192
vt 0.981949 0.107578
vt 0.981947 0.738755
vt 0.898309 0.738754
vt 0.898309 0.107578
vt 0.898213 0.826411
vt 0.898213 0.742295
vt 0.982115 0.742295
vt 0.982115 0.826412
vt 0.898361 0.910776
vt 0.898361 0.826525
vt 0.982317 0.826525
vt 0.982317 0.910777
vt 0.871478 0.966217
vt 0.871478 0.982658
vt 0.869356 0.982333
vt 0.869227 0.967102
vt 0.865690 0.952959
vt 0.865943 0.962883
vt 0.864138 0.964745
vt 0.864138 0.952788
vt 0.856976 0.928423
vt 0.856976 0.974557
vt 0.849776 0.982658
vt 0.850953 0.928812
vt 0.869984 0.829569
vt 0.868947 0.874658
vt 0.863937 0.874964
vt 0.863937 0.836604
vt 0.869427 0.876677
vt 0.869873 0.915123
vt 0.863963 0.918179
vt 0.863963 0.876279
vt 0.857336 0.982172
vt 0.857237 0.932809
vt 0.863877 0.932485
vt 0.863877 0.982658
vt 0.866867 0.932485
vt 0.866867 0.945834
vt 0.864138 0.951408
vt 0.865120 0.932563
vt 0.863963 0.932146
vt 0.863963 0.922310
vt 0.865933 0.918441
vt 0.865251 0.932096
vt 0.856896 0.927700
vt 0.856896 0.876279
vt 0.863702 0.876365
vt 0.863654 0.928162
vt 0.849776 0.874964
vt 0.849870 0.822874
vt 0.856576 0.822442
vt 0.856576 0.873815
vt 0.860503 0.810098
vt 0.858036 0.811148
vt 0.849776 0.809775
vt 0.860361 0.809775
vt 0.856923 0.874513
vt 0.856837 0.823437
vt 0.863676 0.823219
vt 0.863676 0.874964
vt 0.860684 0.812805
vt 0.849915 0.812805
vt 0.849776 0.812423
vt 0.852703 0.811409
vt 0.859904 0.814400
vt 0.854124 0.814975
vt 0.849776 0.813066
vt 0.860057 0.813066
vt 0.856634 0.875225
vt 0.856634 0.926293
vt 0.849776 0.928162
vt 0.849968 0.875656
vt 0.854022 0.808955
vt 0.858304 0.808955
vt 0.866832 0.809514
vt 0.849776 0.809514
vt 0.864138 0.982658
vt 0.864441 0.965100
vt 0.866458 0.965006
vt 0.866458 0.980417
vt 0.866719 0.982658
vt 0.866719 0.967720
vt 0.868966 0.965549
vt 0.868671 0.982548
vt 0.849776 0.817354
vt 0.864663 0.817354
vt 0.866833 0.819601
vt 0.849834 0.819306
vt 0.849776 0.815236
vt 0.862900 0.815811
vt 0.862935 0.817093
vt 0.853168 0.817093
vt 0.849776 0.819862
vt 0.865147 0.819862
vt 0.867388 0.822181
vt 0.849831 0.821878
vt 0.870549 0.813713
vt 0.865598 0.814382
vt 0.860318 0.813066
vt 0.870442 0.813066
vt 0.867244 0.948841
vt 0.867128 0.933265
vt 0.869397 0.932485
vt 0.869397 0.949064
vt 0.871312 0.950120
vt 0.871361 0.965703
vt 0.869227 0.965956
vt 0.869227 0.949909
vn 0.000000 -1.000000 0.000000
vn 0.000000 -0.999969 0.000000
vn 0.844234 -0.009430 0.535844
vn 0.929899 -0.009369 0.367656
vn 0.929899 0.009369 0.367656
vn 0.844234 0.009430 0.535844
vn -0.799676 -0.019044 -0.600116
vn -0.950072 -0.020661 -0.311258
vn -0.950072 0.020661 -0.311258
vn -0.799676 0.019044 -0.600085
vn 0.000000 0.000000 1.000000
vn 0.000000 1.000000 0.000031
vn 0.000000 1.000000 0.000000
vn 0.000000 0.000000 -1.000000
vn 0.408063 -0.611774 0.677633
vn -0.686148 -0.569811 0.452162
vn -0.401929 -0.621052 -0.672811
vn 0.696066 -0.567278 -0.440016
vn 0.408063 0.611744 0.677633
vn 0.696097 0.567278 -0.440016
vn -0.401929 0.621052 -0.672811
vn -0.686148 0.569811 0.452162
usemtl ABCmat
s 1
f 9/1/1 10/2/2 12/3/1 11/4/1
f 19/5/3 20/6/4 21/7/5 22/8/6
f 18/9/7 17/10/8 23/11/9 24/12/10
f 26/13/11 25/14/11 30/15/11 31/16/11
f 15/3/12 16/2/13 14/1/13 13/4/12
f 27/17/14 28/18/14 32/19/14 29/20/14
f 1/21/15 3/22/16 10/23/2 9/24/1
f 11/25/1 12/26/1 4/27/17 2/28/18
f 12/29/1 10/30/2 3/31/16 4/32/17
f 2/33/18 1/34/15 9/35/1 11/36/1
f 13/37/12 14/38/13 8/39/19 7/40/20
f 16/41/13 15/42/12 5/43/21 6/44/22
f 14/45/13 16/46/13 6/47/22 8/48/19
f 15/49/12 13/50/12 7/51/20 5/52/21
f 17/53/8 18/54/7 4/55/17 3/56/16
f 1/57/15 2/58/18 20/59/4 19/60/3
f 21/61/5 20/62/4 2/63/18 7/64/20
f 22/65/6 21/66/5 7/67/20 8/68/19
f 8/69/19 1/70/15 19/71/3 22/72/6
f 23/73/9 17/74/8 3/75/16 6/76/22
f 24/77/10 23/78/9 6/79/22 5/80/21
f 18/81/7 24/82/10 5/83/21 4/84/17
f 3/85/16 1/86/15 25/87/11 26/88/11
f 28/89/14 27/90/14 2/91/18 4/92/17
f 27/93/14 29/94/14 7/95/20 2/96/18
f 1/97/15 8/98/19 30/99/11 25/100/11
f 26/101/11 31/102/11 6/103/22 3/104/16
f 32/105/14 28/106/14 4/107/17 5/108/21
f 31/109/11 30/110/11 8/111/19 6/112/22
f 29/113/14 32/114/14 5/115/21 7/116/20
