# Blender v2.65 (sub 0) OBJ File: 'letters.blend'
# www.blender.org
mtllib Number1.mtl
o Number1
v 0.398029 -0.000000 -1.000220
v 0.246012 -0.000000 -0.000000
v 0.246493 -0.000000 -0.800000
v 0.397930 -0.000000 -0.800000
v 0.126415 -0.000000 -0.650000
v -0.000000 -0.000000 -0.650000
v 0.398030 -0.000000 -0.000000
v 0.248029 -0.000000 -1.000220
v 0.248029 0.150000 -1.000220
v 0.398030 0.150000 -0.000000
v -0.000000 0.150000 -0.650000
v 0.126415 0.150000 -0.650000
v 0.398030 0.150000 -0.800000
v 0.246493 0.150000 -0.800000
v 0.246012 0.150000 -0.000000
v 0.398029 0.150000 -1.000220
v 0.246593 -0.000000 -0.800285
v 0.126367 -0.000000 -0.650100
v 0.000193 -0.000000 -0.650100
v 0.248081 -0.000000 -1.000120
v 0.398030 -0.000000 -0.800000
v 0.397930 -0.000000 -0.000100
v 0.397929 -0.000000 -1.000120
v 0.246112 -0.000000 -0.000100
v 0.246593 0.150000 -0.800285
v 0.246112 0.150000 -0.000100
v 0.397930 0.150000 -0.800000
v 0.397929 0.150000 -1.000120
v 0.397930 0.150000 -0.000100
v 0.248081 0.150000 -1.000120
v 0.000193 0.150000 -0.650100
v 0.126367 0.150000 -0.650100
v 0.246431 0.000100 -0.799922
v 0.126477 0.000100 -0.650078
v 0.398030 0.000100 -0.800000
v 0.398030 0.000100 -0.000100
v 0.398029 0.000100 -1.000120
v 0.246431 0.149900 -0.799922
v 0.398029 0.149900 -1.000120
v 0.398030 0.149900 -0.800000
v 0.398030 0.149900 -0.000100
v 0.126477 0.149900 -0.650078
v 0.000058 0.000100 -0.650082
v 0.247972 0.000100 -1.000139
v 0.246012 0.000100 -0.000100
v 0.246493 0.000100 -0.799900
v 0.246012 0.149900 -0.000100
v 0.246493 0.149900 -0.799900
v 0.247972 0.149900 -1.000139
v 0.000058 0.149900 -0.650082
v 0.126315 0.000100 -0.650000
v 0.000100 0.000100 -0.650000
v 0.397929 0.000100 -1.000220
v 0.248129 0.000100 -1.000220
v 0.246112 0.000100 -0.000000
v 0.397930 0.000100 -0.000000
v 0.246112 0.149900 -0.000000
v 0.397929 0.149900 -1.000220
v 0.397930 0.149900 -0.000000
v 0.248129 0.149900 -1.000220
v 0.126315 0.149900 -0.650000
v 0.000100 0.149900 -0.650000
vt 0.254827 0.983435
vt 0.253377 0.788663
vt 0.136196 0.642283
vt 0.013220 0.642283
vt 0.400878 0.788385
vt 0.400879 0.008753
vt 0.252908 0.008753
vt 0.400878 0.983435
vt 0.978512 0.401102
vt 0.978511 0.832694
vt 0.897676 0.832694
vt 0.897676 0.401102
vt 0.897359 0.339831
vt 0.897397 0.231841
vt 0.978233 0.231869
vt 0.978195 0.339859
vt 0.897969 0.295833
vt 0.897969 0.213909
vt 0.978805 0.213909
vt 0.978805 0.295833
vt 0.896636 0.433766
vt 0.896636 0.352930
vt 0.977472 0.352930
vt 0.977472 0.433766
vt 0.897682 0.426506
vt 0.897682 0.358398
vt 0.978518 0.358398
vt 0.978518 0.426506
vt 0.897211 0.771478
vt 0.978047 0.771505
vt 0.978511 0.169291
vt 0.978511 0.400766
vt 0.897676 0.400766
vt 0.897676 0.169291
vt 0.897961 0.606960
vt 0.897961 0.503383
vt 0.978796 0.503383
vt 0.978796 0.606960
vt 0.864038 0.621788
vt 0.864038 0.611909
vt 0.865326 0.612010
vt 0.865326 0.621874
vt 0.849022 0.651270
vt 0.861027 0.650656
vt 0.865326 0.652879
vt 0.848292 0.652879
vt 0.865256 0.590569
vt 0.853459 0.590569
vt 0.853560 0.589029
vt 0.866983 0.589243
vt 0.865202 0.374024
vt 0.857636 0.374080
vt 0.857275 0.372981
vt 0.865283 0.372981
vt 0.865326 0.631644
vt 0.856605 0.631644
vt 0.856687 0.630507
vt 0.864890 0.630441
vt 0.865326 0.625360
vt 0.857139 0.625360
vt 0.855945 0.624123
vt 0.865262 0.624291
vt 0.854553 0.641003
vt 0.865245 0.641196
vt 0.865326 0.642423
vt 0.855923 0.642423
vt 0.854359 0.587067
vt 0.865376 0.587067
vt 0.866983 0.588732
vt 0.854453 0.588506
vt 0.865276 0.592219
vt 0.849016 0.591892
vt 0.853555 0.590865
vt 0.866983 0.590865
vt 0.855260 0.606265
vt 0.865326 0.604956
vt 0.865326 0.606270
vt 0.855340 0.607580
vt 0.855944 0.637363
vt 0.864131 0.637363
vt 0.865326 0.638600
vt 0.856008 0.638433
vt 0.865326 0.635114
vt 0.857189 0.635114
vt 0.856004 0.633885
vt 0.865260 0.634052
vt 0.856264 0.627601
vt 0.863106 0.627601
vt 0.865326 0.628869
vt 0.856320 0.628495
vt 0.854410 0.549848
vt 0.865373 0.549848
vt 0.866983 0.551521
vt 0.854410 0.551280
vt 0.864675 0.554907
vt 0.856035 0.554907
vt 0.856109 0.553779
vt 0.866983 0.554073
vt 0.853211 0.642929
vt 0.864768 0.642929
vt 0.865326 0.643917
vt 0.857507 0.644435
vt 0.854776 0.610012
vt 0.863984 0.610012
vt 0.865326 0.611403
vt 0.854851 0.611214
vt 0.854409 0.547879
vt 0.865374 0.547879
vt 0.866983 0.549552
vt 0.854409 0.549311
vt 0.865326 0.646255
vt 0.855339 0.647565
vt 0.855259 0.646250
vt 0.865326 0.644941
vt 0.865283 0.351698
vt 0.865283 0.359831
vt 0.864054 0.361017
vt 0.864221 0.351762
vt 0.864096 0.979563
vt 0.864263 0.970307
vt 0.865325 0.970243
vt 0.865325 0.978377
vt 0.865326 0.609506
vt 0.855922 0.609506
vt 0.854552 0.608086
vt 0.865245 0.608278
vt 0.864096 0.949408
vt 0.864096 0.941275
vt 0.865325 0.940089
vt 0.865159 0.949344
vt 0.864054 0.454118
vt 0.864054 0.445985
vt 0.865283 0.444800
vt 0.865117 0.454054
vt 0.865256 0.547583
vt 0.853458 0.547583
vt 0.853559 0.546043
vt 0.866983 0.546257
vt 0.865326 0.640497
vt 0.856118 0.640497
vt 0.854777 0.639106
vt 0.865251 0.639295
vt 0.865326 0.604450
vt 0.851566 0.604450
vt 0.849559 0.602370
vt 0.865214 0.602653
vt 0.866983 0.586771
vt 0.855969 0.586771
vt 0.854363 0.585106
vt 0.866893 0.585333
vt 0.865283 0.341874
vt 0.865283 0.350007
vt 0.864054 0.351192
vt 0.864221 0.341938
vt 0.854363 0.551818
vt 0.865378 0.551818
vt 0.866983 0.553482
vt 0.854454 0.553256
vt 0.864096 0.919933
vt 0.864096 0.911799
vt 0.865325 0.910613
vt 0.865159 0.919869
vt 0.864096 0.929759
vt 0.864096 0.921624
vt 0.865325 0.920439
vt 0.865159 0.929695
vt 0.865325 0.980069
vt 0.865325 0.988203
vt 0.864096 0.989388
vt 0.864263 0.980133
vt 0.849559 0.648071
vt 0.863319 0.648071
vt 0.865326 0.650150
vt 0.849670 0.649867
vt 0.856729 0.433342
vt 0.864195 0.433342
vt 0.865283 0.434470
vt 0.856787 0.434317
vt 0.856007 0.632150
vt 0.865262 0.632317
vt 0.865326 0.633379
vt 0.857193 0.633379
vt 0.855945 0.622380
vt 0.864132 0.622380
vt 0.865326 0.623617
vt 0.856009 0.623450
vt 0.864096 0.969737
vt 0.864096 0.961604
vt 0.865325 0.960418
vt 0.865159 0.969673
vt 0.865283 0.434976
vt 0.865117 0.444230
vt 0.864054 0.444294
vt 0.864054 0.436161
vt 0.865283 0.361523
vt 0.865283 0.369655
vt 0.864054 0.370841
vt 0.864221 0.361587
vt 0.865326 0.636857
vt 0.857138 0.636857
vt 0.855945 0.635620
vt 0.865262 0.635788
vt 0.865325 0.950594
vt 0.865325 0.958727
vt 0.864096 0.959912
vt 0.864263 0.950657
vt 0.856007 0.625866
vt 0.864140 0.625866
vt 0.865326 0.627095
vt 0.856071 0.626929
vt 0.865325 0.930264
vt 0.865325 0.938398
vt 0.864096 0.939583
vt 0.864263 0.930328
vt 0.865283 0.372475
vt 0.857817 0.372475
vt 0.856729 0.371347
vt 0.865225 0.371499
vt 0.864054 0.463943
vt 0.864054 0.455809
vt 0.865283 0.454624
vt 0.865116 0.463879
vn 0.000000 -1.000000 0.000000
vn -1.000000 0.000000 -0.000601
vn 1.000000 0.000000 -0.000001
vn 0.000001 0.000000 1.000000
vn -0.000001 0.000000 -1.000000
vn 0.000000 0.000000 1.000000
vn -0.816072 0.000000 -0.577950
vn 0.780670 0.000000 0.624944
vn -0.000000 1.000000 -0.000000
vn 0.780670 0.000145 0.624944
vn 0.780651 0.000000 0.624968
vn 1.000000 0.000000 0.000000
vn 0.780796 0.000000 0.624786
vn 0.780670 -0.000145 0.624944
vn -0.816072 0.000087 -0.577950
vn -1.000000 0.000000 -0.000596
vn -0.816282 0.000000 -0.577654
vn -0.816243 0.000000 -0.577709
vn -0.816072 -0.000087 -0.577950
vn 0.000000 0.000000 -1.000000
usemtl ABCmat
s off
f 20/1/1 17/2/1 18/3/1 19/4/1
f 4/5/1 22/6/1 24/7/1 17/2/1
f 23/8/1 4/5/1 17/2/1 20/1/1
f 46/9/2 45/10/2 47/11/2 48/12/2
f 35/13/3 37/14/3 39/15/3 40/16/3
f 55/17/4 56/18/4 59/19/4 57/20/4
f 53/21/5 54/22/5 60/23/5 58/24/5
f 52/25/6 51/26/6 61/27/6 62/28/6
f 36/29/3 35/13/3 40/16/3 41/30/3
f 44/31/7 43/32/7 50/33/7 49/34/7
f 34/35/8 33/36/8 38/37/8 42/38/8
f 32/3/9 25/2/9 30/1/9 31/4/9
f 26/7/9 29/6/9 27/5/9 25/2/9
f 25/2/9 27/5/9 28/8/9 30/1/9
f 18/39/1 17/40/1 3/41/1 5/42/1
f 20/43/1 19/44/1 6/45/1 8/46/1
f 22/47/1 4/48/1 21/49/1 7/50/1
f 19/51/1 18/52/1 5/53/1 6/54/1
f 8/55/1 1/56/1 23/57/1 20/58/1
f 24/59/1 22/60/1 7/61/1 2/62/1
f 1/63/1 21/64/1 4/65/1 23/66/1
f 17/67/1 24/68/1 2/69/1 3/70/1
f 26/71/9 25/72/9 14/73/9 15/74/9
f 28/75/9 27/76/9 13/77/9 16/78/9
f 29/79/9 26/80/9 15/81/9 10/82/9
f 30/83/9 28/84/9 16/85/9 9/86/9
f 32/87/9 31/88/9 11/89/9 12/90/9
f 27/91/9 29/92/9 10/93/9 13/94/9
f 31/95/9 30/96/9 9/97/9 11/98/9
f 25/99/9 32/100/9 12/101/9 14/102/9
f 33/103/10 34/104/10 5/105/10 3/106/10
f 35/107/3 36/108/3 7/109/3 21/110/3
f 21/111/3 1/112/3 37/113/3 35/114/3
f 38/115/11 33/116/11 3/117/11 14/118/11
f 1/119/12 16/120/12 39/121/12 37/122/12
f 40/123/3 39/124/3 16/125/3 13/126/3
f 36/127/12 41/128/12 10/129/12 7/130/12
f 34/131/13 42/132/13 12/133/13 5/134/13
f 41/135/3 40/136/3 13/137/3 10/138/3
f 42/139/14 38/140/14 14/141/14 12/142/14
f 43/143/15 44/144/15 8/145/15 6/146/15
f 45/147/2 46/148/2 3/149/2 2/150/2
f 47/151/16 45/152/16 2/153/16 15/154/16
f 48/155/2 47/156/2 15/157/2 14/158/2
f 46/159/16 48/160/16 14/161/16 3/162/16
f 44/163/17 49/164/17 9/165/17 8/166/17
f 50/167/18 43/168/18 6/169/18 11/170/18
f 49/171/19 50/172/19 11/173/19 9/174/19
f 51/175/6 52/176/6 6/177/6 5/178/6
f 1/179/5 8/180/5 54/181/5 53/182/5
f 56/183/4 55/184/4 2/185/4 7/186/4
f 55/187/4 57/188/4 15/189/4 2/190/4
f 16/191/20 1/192/20 53/193/20 58/194/20
f 59/195/4 56/196/4 7/197/4 10/198/4
f 57/199/4 59/200/4 10/201/4 15/202/4
f 60/203/20 54/204/20 8/205/20 9/206/20
f 58/207/5 60/208/5 9/209/5 16/210/5
f 61/211/6 51/212/6 5/213/6 12/214/6
f 62/215/6 61/216/6 12/217/6 11/218/6
f 52/219/6 62/220/6 11/221/6 6/222/6
